<svg width="512" height="512" xmlns="http://www.w3.org/2000/svg">

 <g>
  <title>background</title>
  <rect fill="none" id="canvas_background" height="402" width="582" y="-1" x="-1"/>
 </g>
 <g>
  <title>Layer 1</title>
  <path id="svg_8" fill="#ffffff" d="m265.654,303.198c0.085,-0.149 -0.684,-0.129 -0.817,-0.155c0.139,0.227 1.016,0.17 0.817,0.155z"/>
  <path id="svg_9" fill="#ffffff" d="m266.452,306.456l-0.246,-0.2c0,0 0.11,0.201 0.221,0.402c0.103,0.203 0.188,0.411 0.188,0.411c0.014,0 -0.149,-0.614 -0.163,-0.613z"/>
  <path id="svg_10" fill="#ffffff" d="m264.435,308.838c0.515,0.406 0.73,0.155 0.869,-0.181c0.116,-0.368 0.186,-0.77 0.525,-0.859l0.291,0.11c0,0 -0.165,-0.213 -0.33,-0.426c-0.17,-0.206 -0.339,-0.411 -0.339,-0.411c-0.208,0.604 -0.407,1.722 -1.016,1.767z"/>
  <path id="svg_11" fill="#ffffff" d="m261.767,307.221c0.284,0.418 -0.014,0.503 0.298,0.021c-0.049,-0.035 -0.07,-0.059 -0.102,-0.087c-0.032,0.032 -0.086,0.062 -0.196,0.066z"/>
  <path id="svg_12" fill="#ffffff" d="m261.963,307.154c0.159,-0.143 -0.322,-0.299 0,0l0,0z"/>
  <path id="svg_13" fill="#ffffff" d="m261.164,307.815c0,0 0.03,-0.132 0.061,-0.265c0.024,-0.129 0.05,-0.257 0.05,-0.257c-0.163,-0.263 -0.381,-0.248 -0.376,-0.483c-0.144,0.315 -0.045,0.584 0.265,1.005z"/>
  <path id="svg_14" fill="#ffffff" d="m261.142,308.802l0.117,-0.225c-0.066,-0.112 -0.114,-0.146 -0.117,0.225z"/>
  <path id="svg_15" fill="#ffffff" d="m261.466,308.079c0,0 -0.196,0.512 -0.207,0.498c0.103,0.19 0.244,0.597 0.114,-0.188c0.09,0.379 0.05,-0.003 0.093,-0.31z"/>
  <path id="svg_16" fill="#ffffff" d="m261.722,308.2c0.269,0.202 0.59,0.228 0.438,0.808c0.578,-0.479 0.027,-1.218 -0.438,-0.808z"/>
  <path id="svg_17" fill="#ffffff" d="m265.123,309.998c0,0 0.137,0.018 0.272,0.035c0.134,0.009 0.268,0.018 0.268,0.018l-0.031,-0.551c0.014,0.278 -0.771,0.205 -0.509,0.498z"/>
  <path id="svg_18" fill="#ffffff" d="m259.17,307.385c-0.036,0.276 0.196,0.737 0.24,1.091c0,0 0.107,-0.079 0.215,-0.159c0.091,-0.081 0.116,-0.167 0.124,-0.167c-0.031,-0.045 -0.054,-0.087 -0.103,-0.135c-0.071,-0.049 -0.145,-0.102 -0.213,-0.16c-0.136,-0.12 -0.248,-0.265 -0.263,-0.47z"/>
  <path id="svg_19" fill="#ffffff" d="m259.41,308.476l-0.645,0.475c0.576,0.055 0.681,-0.171 0.645,-0.475z"/>
  <path id="svg_20" fill="#ffffff" d="m261.434,310.217c0,0 0.126,-0.291 0.227,-0.569c0.097,-0.301 0.167,-0.593 0.167,-0.593s-0.097,0.315 -0.232,0.615c-0.135,0.291 -0.301,0.598 -0.301,0.598l0.139,-0.051z"/>
  <polygon id="svg_21" fill="#ffffff" points="256.709,307.351 257.075,306.711 256.424,307.677         "/>
  <path id="svg_22" fill="#ffffff" d="m255.078,307.462c0.27,-0.529 -0.371,-0.896 -0.085,-1.223c-0.443,0.095 -0.822,0.55 -1.163,0.959c0.362,-0.228 0.748,-0.17 1.248,0.264z"/>
  <path id="svg_23" fill="#ffffff" d="m253.258,307.795c0.181,-0.127 0.368,-0.354 0.572,-0.597c-0.192,0.122 -0.382,0.298 -0.572,0.597z"/>
  <path id="svg_24" fill="#ffffff" d="m257.668,308.813c-0.05,-0.168 -0.146,-0.605 -0.507,-0.79l0.253,0.778c0.077,0.004 0.165,0.008 0.254,0.012z"/>
  <path id="svg_25" fill="#ffffff" d="m257.423,308.826l-0.009,-0.024c-0.274,-0.021 -0.465,-0.037 -0.547,-0.043c0.07,0.008 0.237,0.028 0.556,0.067z"/>
  <path id="svg_26" fill="#ffffff" d="m257.732,308.816c-0.023,-0.001 -0.041,-0.002 -0.064,-0.003c0.024,0.077 0.039,0.102 0.064,0.003z"/>
  <path id="svg_27" fill="#ffffff" d="m260.178,309.716c-0.188,0.439 -0.813,0.948 -0.202,1.574c0.178,-0.542 -0.14,-0.905 0.202,-1.574z"/>
  <path id="svg_28" fill="#ffffff" d="m258.047,309.789l0.684,0.178c-0.013,-0.205 -0.137,-0.505 0.051,-0.721l-0.735,0.543z"/>
  <polygon id="svg_29" fill="#ffffff" points="257.712,310.035 258.047,309.789 257.793,309.723         "/>
  <path id="svg_30" fill="#ffffff" d="m254.43,308.522c-0.295,0.338 -0.619,0.367 -0.984,0.422c0.392,0.152 0.796,0.234 1.181,0.233c0.053,-0.244 0.222,-0.682 -0.197,-0.655z"/>
  <path id="svg_31" fill="#ffffff" d="m255.885,308.738c-0.021,0.014 -0.047,0.031 -0.066,0.045c0.04,0.066 0.073,0.087 0.066,-0.045z"/>
  <path id="svg_32" fill="#ffffff" d="m249.858,308.938c0.008,0.044 0.03,0.097 0.049,0.143c0.004,-0.046 0.009,-0.087 0.013,-0.135c0.001,-0.001 -0.071,-0.008 -0.062,-0.008z"/>
  <path id="svg_33" fill="#ffffff" d="m254.692,309.322c0.294,0.15 0.47,-0.04 0.638,-0.28c-0.22,0.078 -0.453,0.13 -0.704,0.136c-0.024,0.11 -0.029,0.183 0.066,0.144z"/>
  <path id="svg_34" fill="#ffffff" d="m252.254,308.158c0.153,0.162 0.327,0.3 0.51,0.428c-0.15,-0.246 -0.455,-0.631 -0.51,-0.428z"/>
  <path id="svg_35" fill="#ffffff" d="m255.72,308.567c0.015,-0.012 0.028,-0.026 0.044,-0.034c-0.097,-0.167 -0.085,-0.085 -0.044,0.034z"/>
  <path id="svg_36" fill="#ffffff" d="m255.72,308.567c-0.151,0.112 -0.271,0.305 -0.39,0.475c0.179,-0.061 0.345,-0.145 0.489,-0.259c-0.037,-0.055 -0.073,-0.138 -0.099,-0.216z"/>
  <path id="svg_37" fill="#ffffff" d="m248.689,313.862c0.167,-0.703 0.9,-1.318 1.564,-0.546c0.657,-0.539 0.228,-2.911 -0.346,-4.236c-0.035,0.316 -0.008,0.602 -0.49,1.004c0.079,0.196 0.295,0.45 0.561,0.716c0.274,0.263 0.447,0.558 0.162,0.884c-0.848,0.354 -0.647,-0.284 -0.971,-0.673c0.109,0.449 -0.141,0.784 -0.464,1.106c-0.315,0.335 -0.717,0.712 -0.744,1.375l0.857,-0.339c-0.002,0.207 -0.335,0.489 -0.129,0.709z"/>
  <path id="svg_38" fill="#ffffff" d="m251.196,309.153l0.278,-0.089c-0.317,-0.126 -0.544,-0.414 -0.962,-0.979c-0.463,0.353 -0.559,0.619 -0.591,0.859l1.371,0.101l-0.096,0.108z"/>
  <path id="svg_39" fill="#ffffff" d="m252.724,309.061c-0.217,0.785 -0.886,1.118 -0.477,1.967c0.817,-0.054 0.572,-0.654 1.061,-0.995c-1.318,0.194 0.378,-0.437 -0.574,-0.882c0.259,-0.133 0.492,-0.174 0.711,-0.206c-0.237,-0.096 -0.466,-0.214 -0.681,-0.358c0.012,0.019 0.02,0.032 0.03,0.048l0.006,-0.002l-0.001,0.013c0.057,0.098 0.076,0.157 0.012,0.1c-0.004,0.011 -0.021,0.015 -0.027,0.017c-0.009,0.109 -0.034,0.204 -0.06,0.296c-0.382,-0.162 -0.06,-0.204 0.06,-0.296c0.004,-0.038 0.015,-0.075 0.016,-0.116l-0.005,-0.011l-1.32,0.431c0.278,0.107 0.628,0.083 1.249,-0.006z"/>
  <path id="svg_40" fill="#ffffff" d="m259.348,312.995c-0.04,-0.069 -0.039,-0.125 -0.042,-0.182c-0.085,0.096 -0.118,0.162 0.042,0.182z"/>
  <path id="svg_41" fill="#ffffff" d="m258.805,312.521c0.097,-0.109 0.177,-0.424 0.488,-0.342c0.271,0.235 -0.001,0.376 0.013,0.634c0.188,-0.208 0.658,-0.563 0.068,-0.944l-0.093,0.106c-0.531,-0.269 -1.215,-1.247 -1.122,-1.355c0.155,0.706 0.292,1.209 0.646,1.901z"/>
  <path id="svg_42" fill="#ffffff" d="m255.727,310.991l-1.1,0.385l0.56,0.679l-0.028,-0.407c0.625,0.159 0.489,-0.343 0.568,-0.657z"/>
  <path id="svg_43" fill="#ffffff" d="m249.792,308.541l0.078,-0.821c0,0 -0.071,0.284 -0.161,0.571c-0.089,0.287 -0.198,0.575 -0.198,0.575l0.281,-0.325z"/>
  <polygon id="svg_44" fill="#ffffff" points="249.021,308.568 249.157,307.86 248.9,308.265         "/>
  <path id="svg_45" fill="#ffffff" d="m282.161,125.465l0.154,1.149c-0.04,-0.542 -0.092,-0.891 -0.154,-1.149z"/>
  <path id="svg_46" fill="#ffffff" d="m282.569,117.21l-0.346,-0.218c0.179,0.392 0.316,0.555 0.346,0.218z"/>
  <path id="svg_47" fill="#ffffff" d="m239.778,195.018c0.607,-1.688 1.577,-3.585 0.775,-3.353l-0.769,0.541c0.187,1.156 0.134,2.049 -0.006,2.812z"/>
  <path id="svg_48" fill="#ffffff" d="m231.746,110.343c-0.072,0.161 -0.147,0.329 -0.221,0.496c0.287,0.393 0.556,0.761 0.799,1.093c-0.175,-0.479 -0.371,-1.021 -0.578,-1.589z"/>
  <path id="svg_49" fill="#ffffff" d="m228.436,109.298c0,0 0.132,-0.711 0.265,-1.422c0.094,-0.358 0.203,-0.71 0.281,-0.971c0.077,-0.261 0.141,-0.431 0.141,-0.431c-0.143,0.301 -0.267,0.681 -0.405,1.153c-0.13,0.455 -0.205,1.075 -0.282,1.671z"/>
  <path id="svg_50" fill="#ffffff" d="m281.034,170.6l0.746,1.365c0.087,-2.082 -0.358,-1.183 -0.746,-1.365z"/>
  <path id="svg_51" fill="#ffffff" d="m242.395,267.262c0.252,-1.446 0.337,-2.592 0.336,-3.597c-0.385,1.746 -1.01,3.166 -0.336,3.597z"/>
  <path id="svg_52" fill="#ffffff" d="m273.931,121.852c0.113,0.705 0.261,1.01 0.438,0.997c-0.104,-0.725 -0.237,-1.138 -0.438,-0.997z"/>
  <path id="svg_53" fill="#ffffff" d="m242.566,259.524c-0.069,0.256 -0.1,0.505 -0.156,0.765c0.173,1.043 0.321,2.094 0.321,3.376c0.288,-1.289 0.438,-2.758 -0.165,-4.141z"/>
  <path id="svg_54" fill="#ffffff" d="m275.354,286.066c-0.037,0.031 -0.056,0.071 -0.1,0.101c0.108,0.015 0.115,-0.032 0.1,-0.101z"/>
  <path id="svg_55" fill="#ffffff" d="m266.808,299.201c-0.043,-0.135 -0.035,-0.352 -0.036,-0.557c-0.059,0.098 -0.061,0.265 0.036,0.557z"/>
  <path id="svg_56" fill="#ffffff" d="m244.257,298.609c0.094,1.069 0.095,0.166 0,0l0,0z"/>
  <path id="svg_57" fill="#ffffff" d="m241.368,303.799c-0.104,-0.176 -0.23,-0.311 -0.414,-0.321c0.197,0.061 0.329,0.174 0.414,0.321z"/>
  <path id="svg_58" fill="#ffffff" d="m237.239,249.058c0,-0.031 -0.001,-0.057 -0.001,-0.093c-0.142,0.325 -0.115,0.269 0.001,0.093z"/>
  <path id="svg_59" fill="#ffffff" d="m243.962,300.233c0.081,-0.405 0.144,-0.871 0.181,-1.378c-0.053,0.225 -0.113,0.643 -0.181,1.378z"/>
  <path id="svg_60" fill="#ffffff" d="m244.327,300.002c-0.016,0.37 -0.028,0.661 -0.04,0.938c0.136,0.13 0.214,0.008 0.04,-0.938z"/>
  <path id="svg_61" fill="#ffffff" d="m244.157,297.12c0.036,0.611 0.021,1.185 -0.014,1.735c0.045,-0.212 0.086,-0.302 0.114,-0.246c-0.021,-0.313 -0.05,-0.755 -0.1,-1.489z"/>
  <path id="svg_62" fill="#ffffff" d="m274.966,246.402c-0.028,0.069 -0.048,0.15 -0.085,0.226c0.28,1.093 0.249,0.617 0.085,-0.226z"/>
  <path id="svg_63" fill="#ffffff" d="m230.494,167.49c0.01,0.05 0.032,0.076 0.043,0.121c0.007,-0.05 0.016,-0.113 0.021,-0.159l-0.064,0.038z"/>
  <path id="svg_64" fill="#ffffff" d="m229.756,163.669c1.046,1.599 0.961,2.534 0.802,3.782l2.226,-1.36l-3.028,-2.422z"/>
  <path id="svg_65" fill="#ffffff" d="m281.527,145.248l0.826,-2.668c1.025,3.308 0.521,5.647 1.628,3.157c-2.454,-0.489 0.203,-10.5 -2.248,-10.982l0.597,-1.757c-0.046,0.509 0.096,0.597 0.05,1.1c1.333,-3.408 -1.675,-2.648 -1.128,-7.09c0.256,-1.545 0.662,-2.614 0.909,-1.542l-0.46,-3.488c0.092,-1.005 0.51,-0.74 0.419,0.26l0.032,-5.288l0.071,0.042c-0.355,-0.77 -0.879,-2.503 -1.098,-3.347c0.412,-1.326 0.232,0.685 0.556,0.354l-0.471,-2.949c0.691,-1.163 1.207,1.287 1.027,3.302c1.292,-1.312 1.163,-1.924 0.923,-2.938c-0.12,-0.507 -0.268,-1.114 -0.279,-1.959c0.002,-0.581 0.004,-1.242 0.007,-2.016c-0.01,-0.816 -0.045,-1.757 -0.179,-2.867c0,0 0.108,0.238 0.214,0.612c0.104,0.373 0.281,0.87 0.375,1.38c0.232,1.021 0.296,2.063 0.297,2.063c0.721,-1.342 0.745,-3.016 0.322,-4.861c-0.439,-1.855 -1.326,-3.884 -2.79,-6.166c0.122,0.319 0.543,1.053 0.875,1.98c0.185,0.451 0.336,0.952 0.455,1.45c0.133,0.49 0.218,0.981 0.251,1.431c0.1,0.886 -0.008,1.583 -0.212,1.774c-0.229,0.202 -0.486,-0.116 -1.089,-1.084c-0.327,-1.211 -1.126,-2.896 -3.227,-4.213c0.611,-0.609 -1.323,-2.353 -4.235,-3.358l0.622,-1.01c-0.864,-0.257 -1.519,-0.322 -2.03,-0.333c-0.508,-0.026 -0.88,0.049 -1.201,0.127c-0.64,0.148 -1.093,0.377 -2.041,0.608c-0.189,-0.015 -0.369,-0.029 -0.541,-0.043c-0.143,-0.017 -0.277,-0.032 -0.406,-0.047c-0.257,-0.037 -0.486,-0.085 -0.692,-0.141c-0.413,-0.112 -0.733,-0.26 -0.994,-0.427c-0.52,-0.335 -0.799,-0.75 -1.096,-1.13c-4.039,-0.185 2.789,1.446 -1.991,1.665c-3.359,-0.445 -5.718,0.03 -9.737,0.728c-2.351,-0.401 0.411,-0.712 -0.432,-1.045l-2.084,0.929c-0.51,-0.022 -0.345,-0.308 -0.262,-0.452c-1.756,0.36 -0.145,1.163 -2.905,1.479c-0.372,0.641 -1.789,0.173 -3.54,-0.274c-0.875,-0.223 -1.835,-0.441 -2.789,-0.512l-0.363,-0.019l-0.476,0.016c-0.316,0.021 -0.63,0.044 -0.935,0.104c-0.608,0.151 -1.192,0.326 -1.687,0.664c-1.176,-0.034 0.352,-0.829 -0.077,-1.182c-1.584,0.606 -2.556,1.312 -3.297,1.835c-0.718,0.573 -1.194,1.018 -1.595,1.487c-0.411,0.451 -0.739,0.938 -1.11,1.572c-0.35,0.649 -0.756,1.464 -1.054,2.66c0,0 -0.172,0.191 -0.41,0.498c-0.212,0.319 -0.541,0.737 -0.79,1.2c-0.257,0.459 -0.513,0.935 -0.654,1.312c-0.154,0.376 -0.257,0.627 -0.257,0.627c0.764,-1.457 1.161,-1.024 1.424,-0.025c0.126,0.501 0.288,1.168 0.493,1.856c0.207,0.708 0.47,1.365 0.708,2.037c0.38,-0.874 0.733,-1.625 0.926,-2.049c0,0 0.036,0.247 0.09,0.616c0.072,0.398 0.169,0.929 0.266,1.459c0.198,1.069 0.396,2.137 0.396,2.137c-0.17,0.527 -0.587,0.11 -1.101,-0.576c0.107,0.29 0.213,0.563 0.31,0.777c-0.37,1.555 -1.072,0.784 -1.766,-0.292c0.209,-0.533 0.434,-1.062 0.657,-1.577c-0.748,-1.036 -1.57,-1.99 -2.239,-1.767c0.139,0.309 0.28,0.817 0.367,1.414c-0.203,-0.27 -0.381,-0.441 -0.492,-0.308c-0.117,0.151 0.158,0.589 0.482,1.281l-1.258,1.028l0.524,0.217l-0.591,5.658c1.463,3.974 3.521,7.4 4.307,13.767c-1.013,-1.547 -1.566,-0.28 -2.697,-0.322c1.125,-1.79 -0.701,-4.928 -0.588,-8.249c-0.058,1.732 -0.609,1.374 -0.814,0.942l1.316,5.862c-0.926,-0.097 -0.642,1.281 -0.962,2.838c1.776,-1.237 1.385,4.354 2.038,6.735c-0.605,0.173 -1.252,-0.378 -1.22,-3.315c-1.245,3.288 2.303,4.095 1.261,7.315c-0.042,-0.715 0.037,-1.105 -0.285,-1.375c0.609,1.65 0.338,5.755 -0.232,4.813l-0.041,-0.713c-0.03,4.76 0.553,14.466 2.127,15.115c-0.197,0.055 -1.889,-0.55 -2.212,-0.825l5.537,8.275c-1.358,-0.695 -4.41,2.296 -5.314,-1.615c-0.145,1.139 -0.311,2.547 0.251,4.915c0.159,-0.78 1.846,-2 2.009,-0.95c-1.366,2.953 -0.713,2.042 -1.834,5.659c0.24,-1.167 2.374,0.036 2.378,1.867c-0.323,-0.273 -2.05,0.233 -2.293,-0.427l2.223,4.471c-0.413,-1.122 -1.741,-0.133 -2.28,0.908c0.382,-0.488 0.117,3.936 0.367,5.141l0.398,-1.947c-0.108,5.15 3.075,4.962 3.167,10.063c-0.447,-0.6 -2.66,-1.422 -2.815,1.181c1.094,1.147 5.243,5.063 6.227,9.541l-0.565,0.888l0.817,3.434c-1.66,-2.093 -5.213,-8.009 -6.633,-11.261c-0.399,1.941 -0.685,0.563 -0.519,3.44c-0.521,1.039 -0.913,-1.536 -0.979,-2.382l-0.1,6.718c1.212,-0.346 1.427,5.079 2.436,4.783l-1.553,-7.232c1.209,-0.343 3.635,4.075 3.605,8.833c-0.44,1.228 -2.211,-0.818 -2.616,-0.704c0.445,0.6 0.98,4.477 0.699,4.925l-0.732,-1.989c-0.356,2.662 1.789,4.252 0.747,7.475c-0.035,1.1 -1.446,3.337 -0.715,3.499c1.325,-1.844 5.626,-2.363 6.721,-1.211c-0.079,0.388 -1.108,5.811 -1.748,7.09c-1.023,1.849 -2.713,-2.609 -3.593,-1.035c0.336,0.053 0.788,1.035 0.937,1.445c-0.24,1.163 -1.054,-0.437 -0.805,2.061c1.256,0.369 0.094,5.095 1.094,1.142c0.45,2.434 -0.153,2.612 0.014,5.484c0.765,-0.946 2.828,2.475 3.276,4.914c-0.32,-0.132 -0.71,0.435 -0.886,0.709c0.084,5.023 -0.373,7.739 -0.201,12.419c-0.283,0.443 -0.558,2.716 -1.129,1.774c0.246,0.665 0.69,1.267 0.776,2.709c-0.962,2.835 -0.292,-3.212 -1.497,-1.032c0.728,0.154 1.14,3.694 1.67,5.732c1.088,-0.676 0.027,-4.759 -0.502,-6.8c1.534,-0.069 3.281,3.452 4.183,8.315c0.533,3.872 -0.926,1.725 -0.681,2.391c0.018,7.313 2.923,6.115 2.053,12.223c-0.883,2.443 -1.941,0.185 -2.625,0.745c-0.494,-3.152 0.431,-4.886 0.307,-7.031l-0.359,2.661c-0.365,-0.995 -0.694,-3.099 -0.456,-4.262c-0.8,2.051 0.313,12.343 -0.277,18.008c0.368,0.988 0.774,2.703 1.135,1.87l-0.206,-1.777c0.725,-1.67 1.222,3.313 1.501,1.041c0.324,1.185 0.73,2.438 1.016,3.819c0.071,0.346 0.135,0.698 0.188,1.061c0.024,0.199 0.055,0.339 0.083,0.465c0.027,0.134 0.049,0.27 0.067,0.406c0.044,0.273 0.117,0.548 0.146,0.84c0.082,0.28 0.098,0.588 0.175,0.895c0,0 -0.213,0.216 -0.426,0.432c-0.207,0.232 -0.415,0.465 -0.415,0.465c0.151,-0.103 0.087,-0.58 0.022,-1.116c-0.091,-0.533 -0.198,-1.127 -0.408,-1.491c0.311,0.525 0.118,1.608 0.381,2.753c0.225,1.13 0.917,2.225 1.904,2.171c0,0 -0.208,-0.484 -0.33,-0.98c-0.079,-0.235 -0.112,-0.492 -0.146,-0.672c-0.031,-0.18 -0.052,-0.3 -0.052,-0.3c0.705,0.645 1.684,1.105 2.622,1.418c0.95,0.321 1.823,0.514 2.653,0.901c-0.26,-0.622 -0.327,-0.635 -0.479,-0.68c-0.135,-0.03 -0.375,-0.139 -0.557,-0.968c0.072,0.957 -0.917,0.455 -1.69,-0.292c-0.734,-0.729 -1.219,-1.649 -1.429,-0.375c0.204,-1.025 0.143,-1.546 0.061,-2.133c-0.02,-0.293 -0.048,-0.588 0.027,-0.912c0.014,-0.158 0.104,-0.328 0.183,-0.494l0.067,-0.125c0.022,-0.029 0.048,-0.087 0.078,-0.188c0.057,-0.171 0.122,-0.347 0.195,-0.527c-0.364,0.103 -0.664,1.035 -0.581,-1.477c-0.112,-0.108 -0.258,-0.37 -0.346,-0.536c0.01,-0.077 0.013,-0.104 0.021,-0.171c-0.014,0.051 -0.024,0.09 -0.038,0.14c-0.059,-0.105 -0.071,-0.115 -0.013,0.053c-0.137,0.603 -0.312,1.094 -0.509,1.298c-0.893,-1.21 -1.022,-5.194 -1.512,-6.523c0.117,-1.492 0.446,0.605 0.807,-0.222l-0.732,-1.986c0.81,-0.23 1.203,-4.001 1.818,-0.519l-0.087,-3.152c0.386,-1.873 0.468,-4.432 0.063,-5.992c0.118,-1.493 -1.051,-3.719 -0.361,-2.449l-0.699,-4.921l0.202,-0.054c-0.087,-4.88 -1.745,-9.984 -0.489,-15.616c-0.27,-1.633 -0.588,-3.319 -0.464,-6.075l0.686,-0.563c-0.33,-2.098 0.459,-6.356 -0.313,-7.233c1.812,-2.348 0.015,-10.245 0.207,-13.964l-0.928,-0.104c-0.047,-2.554 -0.405,-4.99 -0.899,-8.142l-0.808,0.227c-0.776,-2.704 0.305,-7.042 0.053,-11.357c0.323,0.281 0.284,1.38 0.126,2.163c1.64,-5.232 -1.766,-10.833 -0.607,-15.565c-0.343,-1.154 -0.274,-2.002 -0.102,-2.828c0.006,0.108 0.025,0.205 0.054,0.287c0.006,-0.12 0,-0.297 -0.008,-0.479c0.12,-0.521 0.263,-1.057 0.371,-1.637c-0.179,0.496 -0.324,0.97 -0.384,1.379c-0.052,-0.898 -0.207,-2.258 -0.463,-3.587l0.853,-0.604c-0.013,-0.108 -0.023,-0.195 -0.037,-0.308c0.272,-1.324 -0.456,-1.038 -1.087,-0.313c-0.17,-0.667 -0.367,-1.277 -0.597,-1.748c1.372,-1.121 -0.613,-3.488 0.837,-5.002c-0.771,-0.872 -0.816,-6.7 -2.391,-7.352c0.199,-0.053 0.28,-0.451 0.321,0.271c0.118,-1.498 0.236,-2.994 -0.252,-4.314l1.088,-0.676l-1.625,-3.196c0.602,-2.004 0.964,-2.839 1.897,-0.909c-1.503,-4.689 -0.647,-3.827 -2.111,-7.807l0.728,0.168c-0.084,-1.439 -1.139,-3.705 -0.578,-4.598c1.242,-3.277 -0.435,-15.958 0.513,-24.282c-2.057,1.688 0.799,-3.883 -0.856,-4.147c0.482,-0.501 0.72,-1.666 1.208,-0.343c-0.658,-4.204 0.547,-6.376 -0.953,-9.237c0.484,-0.503 0.771,0.875 1.051,0.434c-0.122,-0.334 -0.489,-1.325 -0.207,-1.776c0.282,-0.441 0.445,0.602 0.69,1.262c-0.253,-4.311 -1.815,-4.686 -3.278,-4.943c0.301,-1.106 0.416,-1.931 0.33,-2.672c-0.043,-0.37 -0.137,-0.72 -0.283,-1.073c-0.147,-0.356 -0.35,-0.724 -0.575,-1.02c0.227,-0.318 0.502,-0.691 0.723,-0.724c0.105,-0.019 0.192,0.044 0.248,0.227c0.02,0.09 0.069,0.215 0.094,0.374c0.012,0.079 0.025,0.167 0.039,0.266c0.012,0.117 0.025,0.245 0.039,0.387c-0.006,-0.223 0.026,-0.394 0.048,-0.65c0.005,-0.252 0.085,-0.542 0.14,-0.862c0.155,-0.631 0.413,-1.34 0.748,-1.977c0.674,-1.275 1.648,-2.204 1.37,-2.691c0.421,-0.027 1.348,-0.751 1.592,-0.986c1.204,-0.416 1.911,-0.458 2.597,-0.449c0.15,-0.009 0.37,-0.007 0.62,-0.003c0.239,0 0.49,0 0.764,0c0.548,-0.013 1.19,-0.027 2.021,-0.046l-0.922,-0.19c1.313,-1.403 2.764,-0.313 5.445,-0.482l-0.077,0.144c6.147,1.012 2.654,-0.485 8.718,0.67l-0.33,-0.873c0.565,-1.877 5.373,1.108 8.893,0.39l-1.271,-0.499c0.961,-0.321 2.304,0.317 3.647,1.065c1.152,0.75 1.618,1.771 2.065,2.06c0.151,0.227 -0.418,0.116 -0.732,0.176c0.554,0.409 0.765,0.626 0.948,0.643c0.177,0.018 0.289,-0.138 0.4,-0.337c0.222,-0.379 0.438,-1.058 1.51,-0.435c-0.02,0.369 -0.393,0.579 -0.598,0.837c-0.21,0.254 -0.277,0.531 0.075,1.003c-0.012,0.376 0.933,0.695 1.609,1.749c0.18,0.253 0.295,0.549 0.418,0.86l0.105,0.486l0.025,0.125l0.009,0.205l0.011,0.406c0.014,1.079 -0.097,2.104 -0.43,2.955c0.509,-0.74 1.015,-1.476 1.296,0.288c0.054,2.686 -2.11,7.163 -0.719,9.647c-0.145,0.335 -0.274,0.458 -0.393,0.467c0.297,2.064 0.353,6.682 1.11,7.95c-3.096,1.761 0.91,12.793 -1.865,12.626l-0.126,6.304l-0.276,-0.177c-0.359,4.018 0.245,5.47 0.851,6.915c-0.229,0.922 -0.46,0.231 -0.602,0.148c-0.816,5.858 -0.724,6.448 0.445,11.439l-0.924,0.474c0.466,1.359 -1.783,8.442 -0.982,14.257c-0.1,-0.061 -0.27,-0.188 -0.377,-0.651c0.775,6.537 -3.177,15.43 0.002,17.952l0.622,4.318c0.497,-5.53 1.389,0.887 2.033,-1.369c0.098,2.188 -1.234,5.591 -1.287,2.905l0.183,-0.412c-1.668,-1.058 -0.906,6.86 -2.064,6.66c-0.391,10.908 -1.8,21.495 -2.317,31.706l1.381,-1.119l-0.231,3.56c-0.351,0.922 -1.095,1.21 -0.93,-1.33c-0.812,1.304 0.445,4.291 0.731,4.375c-0.755,4.953 -1.466,-2.012 -1.563,-0.486l0.009,2.077l0.176,-0.46c0.47,1.704 1.04,1.878 0.841,4.93c-0.35,1.921 -0.863,0.956 -0.947,1.714c-0.095,-0.009 -0.15,0.247 -0.09,1.166l-0.309,4.483l1.128,-1.749c0.432,2.013 -0.238,4.219 1.042,2.199c-0.246,0.37 -0.452,0.909 -0.626,1.572c-0.087,0.331 -0.166,0.693 -0.237,1.082c-0.033,0.194 -0.067,0.395 -0.102,0.601l-0.047,0.29l-0.034,0.09c-0.179,0.485 -0.246,1.065 -0.274,1.637c-0.057,1.143 0.047,2.251 -0.249,2.503c0.731,0.821 0.685,1.599 0.55,2.559c0.229,-0.229 1.416,-0.321 1.235,0.504c-2.423,-0.41 -1.124,1.477 -2.906,2.072c1.188,-0.551 0.185,2.376 1.876,1.506c-0.228,0.685 -0.914,0.002 -1.51,0.504c0.872,1.692 -0.772,3.612 -0.542,5.667c0.317,0.046 0.822,-0.274 1.278,0.184l-1.646,1.009c0.139,0.41 1.83,0.451 0.688,1.14c0.273,-0.093 0.687,-0.23 0.776,0.045c-1.731,3.931 0.921,8.227 -2.184,12.16c0.644,-0.523 0.689,-0.154 0.694,0.267c0.16,-0.266 0.789,0.041 1.225,0.006l-1.277,1.648c1.189,0.362 0.002,1.826 1.145,2.054l-0.184,-0.548c1.326,0.775 3.061,-0.87 4.798,-0.689c-1.509,-0.869 2.377,-2.015 0.226,-3.426c0.367,-0.275 0.551,0.271 0.961,0.134c-0.732,-0.366 -0.87,-0.775 -0.503,-1.507l0.181,0.093c-0.09,-2.104 0.685,-2.972 1.277,-5.305l-0.869,0.137c0.138,-0.501 0.412,-0.596 0.639,-0.823c-1.281,-0.638 -0.136,1.418 -1.553,0.826c1.781,-0.595 0.183,-3.567 2.193,-3.935c0.044,-0.778 -1.008,0.185 -0.962,-0.593l0.548,-0.184l-0.687,-0.227c0.138,-0.506 0.822,-0.733 1.28,-0.732c-0.06,0.121 0.112,0.357 0.146,0.492c0.663,-0.635 -0.135,-1.876 0.081,-2.095l-0.364,0.733c-0.412,-2.146 0.409,-4.71 -0.598,-6.81l-0.414,0.138c-0.684,-1.6 0.501,-1.236 0.229,-2.972l0.094,0.066c-0.391,-0.362 -0.574,-0.831 -0.508,-1.3c0.457,0.455 0.961,-0.777 1.463,-0.185c-0.733,-1.735 -0.598,-0.868 -2.06,-2.057l0.685,-0.229c-0.592,-0.409 -0.913,-0.455 -1.05,-1.322c0.548,0.73 1.052,-0.504 1.782,0.319c0.776,-0.87 0.434,-1.556 0.17,-2.116c-0.131,-0.279 -0.243,-0.528 -0.185,-0.753c0.029,-0.112 0.101,-0.218 0.233,-0.319c0.033,-0.025 0.07,-0.05 0.111,-0.074l0.065,-0.037l0.075,-0.135c0.105,-0.181 0.229,-0.359 0.371,-0.536c-0.435,-0.752 -0.732,-0.786 -0.938,-0.44c-0.204,0.295 -0.332,1.301 -0.369,1.291c-0.095,0.433 -0.009,0.918 -0.198,0.678c-0.313,0.181 -0.654,-0.005 -0.891,-0.307c-0.118,-0.15 -0.21,-0.329 -0.26,-0.506c-0.012,-0.044 -0.021,-0.088 -0.028,-0.132c0.001,-0.142 0.001,-0.282 0.002,-0.42c0.008,-0.292 0.028,-0.569 0.063,-0.819c0.131,-2.034 2.538,-3.358 2.726,-8.482c-0.03,0.51 0.108,0.55 0.078,1.059c0.561,-1.897 -0.48,-3.785 0.396,-6.103c-1.071,-1.367 0.197,-3.05 -1.226,-3.493l0.128,4.714c-0.26,-2.681 -1.835,-5.252 -0.828,-9.604c0.276,0.354 0.601,1.677 0.775,2.583c0.479,-1.265 -0.174,-2.483 0.32,-3.795c1.424,0.442 0.064,5.725 1.038,8.626c0.668,-1.351 -0.809,-5.444 0.689,-3.942c-1.895,-2.148 0.47,-5.037 -0.894,-8.571l0.853,0.267c-0.111,-0.555 -0.469,-1.71 -0.404,-2.72l1.04,1.878c-0.832,-2.85 1.07,-5.378 0.668,-8.095c-0.219,5.642 -1.095,1.221 -1.828,3.579c-0.853,-7.007 2.431,-3.903 2.356,-11.709c0.075,1.06 -0.691,3.936 -1.02,2.27c0.243,-1.475 0.659,-3.419 1.151,-4.309c0.046,-5.168 -0.922,0.754 -1.356,-1.466c1.128,-1.711 -0.317,-2.553 -0.556,-4.83l0.878,0.022c0.818,-5.856 -1.76,-1.639 -0.851,-6.903l1.12,2.291l-0.194,-2.773l0.973,0.613c-0.609,-3.035 -0.377,-3.962 0.03,-6.892c-0.647,0.657 -1.574,-0.454 -1.489,-3.06c0.599,-1.753 0.791,1.031 0.826,-2.666c0.513,0.857 1.162,1.8 0.283,3.372c0.279,0.177 0.516,0.846 0.79,1.028c0.683,-1.886 0.346,-4.801 0.396,-6.138c-0.056,0.513 -0.129,1.126 -0.268,1.436l-0.983,-5.405c0.366,-0.828 0.602,-0.148 0.832,0.525c-0.048,-1.088 -0.418,-1.855 -0.424,-3.453c0.694,0.444 1.436,0.377 1.673,2.648l-0.569,-5.134c0.324,-0.327 0.965,-2.58 1.199,-1.906c0.542,-2.809 -1.082,-6.995 -0.365,-10.719c-0.13,-0.201 -0.246,-0.597 -0.313,-1.398c0.314,-3.516 1.325,-6.598 0.529,-10.815l1.381,-2.313c-0.147,-3.283 -1.749,3.137 -1.994,-2.329c-0.24,-3.873 1.152,-1.391 1.567,-2.728c-0.562,-1.945 -1.728,-5.335 -0.532,-8.831c0.198,1.176 -0.032,2.087 0.015,3.187zm-0.089,-41.991c0.321,0.463 0.762,1.204 1.064,1.969c0.138,0.385 0.249,0.772 0.3,1.117c0.027,0.348 -0.001,0.652 -0.107,0.869c-0.555,-0.583 -0.78,-1.074 -0.894,-1.688c-0.042,-0.31 -0.087,-0.64 -0.138,-1.012c-0.046,-0.374 -0.092,-0.796 -0.225,-1.255zm-51.146,13.09c-0.313,-0.569 -0.205,-1.474 0.088,-2.501c0.101,0.733 0.101,1.568 -0.088,2.501zm12.793,170.562c-0.016,-0.033 -0.027,-0.056 -0.046,-0.082c0.273,-1.757 0.163,-1.133 0.046,0.082zm-0.24,3.635c0.137,0.359 0.258,0.329 0.375,0.171c-0.232,-0.244 -0.279,-1.057 -0.253,-1.984c-0.22,0.265 -0.361,0.74 -0.122,1.813zm25.719,-32.973l0.26,-0.694c0.183,1.602 -0.025,1.146 -0.26,0.694z"/>
  <path id="svg_66" fill="#ffffff" d="m228.819,109.442c0.14,-0.227 0.3,-0.292 0.467,-0.37c-0.073,-0.191 -0.152,-0.292 -0.233,-0.238c-0.08,0.039 -0.171,0.307 -0.234,0.608z"/>
  <path id="svg_67" fill="#ffffff" d="m280.897,170.347l-0.016,0.122c0.05,0.07 0.102,0.108 0.152,0.131l-0.136,-0.253z"/>
  <path id="svg_68" fill="#ffffff" d="m233.212,234.758c0.097,-0.75 0.241,-1.172 0.396,-1.455c-0.215,-0.032 -0.383,0.314 -0.396,1.455z"/>
  <path id="svg_69" fill="#ffffff" d="m245.961,305.971c-0.026,0.03 -0.845,-0.833 -0.823,-0.857c0.144,0.246 0.21,0.431 0.258,0.596c0.031,0.174 0.038,0.328 0.086,0.487c0.141,-0.152 0.243,-0.501 0.479,-0.226z"/>
  <path id="svg_70" fill="#ffffff" d="m251.382,313.34c0.096,-0.107 0.204,-0.012 0.298,-0.121l-0.026,-0.407c-0.408,0.026 -0.694,0.355 -0.272,0.528z"/>
  <path id="svg_71" fill="#ffffff" d="m244.858,308.985c-0.372,0.648 0.754,1.28 2.019,1.604c-0.075,-0.021 -0.146,-0.042 -0.212,-0.087c0.727,-0.831 -0.562,-0.909 -1.807,-1.517z"/>
  <path id="svg_72" fill="#ffffff" d="m247.168,310.667c0.193,0.053 0.383,0.114 0.58,0.148l0.288,0.073l0.134,0.042l0.038,0.021c0.032,-0.099 0.041,-0.155 0.033,-0.185c-0.01,-0.029 -0.008,-0.023 -0.146,-0.038c-0.224,-0.015 -0.579,0.028 -0.927,-0.061z"/>
  <path id="svg_73" fill="#ffffff" d="m243.515,295.116c-0.16,0.778 0.962,0.446 0.679,0.895c0.973,0.823 -1.338,-5.092 -0.679,-0.895z"/>
  <path id="svg_74" fill="#ffffff" d="m244.373,311.635c0,0 -0.008,-0.26 0.011,-0.535c0.02,-0.268 0.04,-0.535 0.04,-0.535s-0.282,0.022 -0.563,0.045c-0.288,0.02 -0.57,0.003 -0.57,0.003c-0.027,0.02 1.06,1.044 1.082,1.022z"/>
  <path id="svg_75" fill="#ffffff" d="m240.043,300.489l-0.151,2.605c0.147,-0.041 0.256,0.281 0.363,0.642c-0.082,-1.518 0.066,-3.337 -0.212,-3.247z"/>
  <path id="svg_76" fill="#ffffff" d="m240.255,303.736c0.038,0.773 0.25,1.495 0.52,1.853c-0.138,-0.388 -0.379,-1.241 -0.52,-1.853z"/>
  <path id="svg_77" fill="#ffffff" d="m241.536,309.441c0,0 -0.332,-0.729 -0.313,-0.738c0,0 -0.25,-0.39 -0.461,-0.799c-0.099,-0.208 -0.198,-0.416 -0.272,-0.571c-0.078,-0.154 -0.116,-0.263 -0.116,-0.263s0.049,0.156 0.145,0.382c0.1,0.224 0.198,0.545 0.36,0.833c0.284,0.599 0.658,1.156 0.657,1.156z"/>
  <path id="svg_78" fill="#ffffff" d="m239.127,272.581l-0.372,-2.822c-0.323,-0.276 -0.484,0.503 -0.319,1.553c0.244,0.668 0.406,1.715 0.691,1.269z"/>
  <path id="svg_79" fill="#ffffff" d="m236.967,281.245c0.159,-0.773 0.36,-0.833 0.643,-1.276l-1.132,-0.042l0.489,1.318z"/>
  <path id="svg_80" fill="#ffffff" d="m236.38,272.995c-0.325,-0.271 -1.06,-4.076 -0.849,-0.488c0.322,0.274 0.693,3.101 0.849,0.488z"/>
  <polygon id="svg_81" fill="#ffffff" points="236.138,230.257 236.181,230.977 238.029,230.801         "/>
  <path id="svg_82" fill="#ffffff" d="m230.235,192.811c-0.313,3.374 1.174,0.752 0.738,3.808c0.469,0.771 0.355,-2.497 0.765,-1.704c-0.541,-2.008 -0.321,-3.082 -1.503,-2.104z"/>
  <path id="svg_83" fill="#ffffff" d="m231.738,194.915c0.085,0.322 0.188,0.662 0.322,1.023c-0.138,-0.583 -0.238,-0.855 -0.322,-1.023z"/>
  <polygon id="svg_84" fill="#ffffff" points="265.716,301.395 265.303,301.989 265.942,301.622         "/>
  <path id="svg_85" fill="#ffffff" d="m267.038,302.627l-1.187,0.093l1.052,0.413c-0.046,-0.141 -0.135,-0.413 0.135,-0.506z"/>
  <path id="svg_86" fill="#ffffff" d="m277.118,94.915l-0.376,0.105c0.313,0.556 1.019,0.957 2.237,2.034c0,0 -0.415,-0.551 -0.871,-1.102c-0.462,-0.536 -0.99,-1.037 -0.99,-1.037z"/>
  <polygon id="svg_87" fill="#ffffff" points="283.197,128.235 283.244,127.732 282.135,128.627         "/>
  <path id="svg_88" fill="#ffffff" d="m283.489,152.859c0.089,-1.001 -0.099,-2.189 -0.01,-3.195c0.099,2.194 -1.333,3.409 0.01,3.195z"/>
  <path id="svg_92" fill="#ffffff" d="m272.213,399.775c0.078,-0.152 -0.688,-0.099 -0.823,-0.12c0.148,0.219 1.021,0.125 0.823,0.12z"/>
  <path id="svg_93" fill="#ffffff" d="m273.147,402.955l-0.253,-0.191c0.02,-0.007 0.455,0.786 0.436,0.793c0,0 -0.039,-0.15 -0.078,-0.302c-0.045,-0.151 -0.104,-0.299 -0.105,-0.3z"/>
  <path id="svg_94" fill="#ffffff" d="m271.215,405.316c0.526,0.421 0.721,0.15 0.857,-0.175c0.111,-0.362 0.162,-0.767 0.502,-0.853l0.29,0.105c0,0 -0.17,-0.209 -0.341,-0.418c-0.175,-0.201 -0.35,-0.402 -0.35,-0.402c-0.174,0.601 -0.356,1.704 -0.958,1.743z"/>
  <path id="svg_95" fill="#ffffff" d="m268.596,403.668c0.279,0.427 -0.009,0.49 0.287,0.036c-0.047,-0.034 -0.067,-0.059 -0.098,-0.087c-0.033,0.025 -0.088,0.043 -0.189,0.051z"/>
  <path id="svg_96" fill="#ffffff" d="m268.785,403.617c0.148,-0.137 -0.314,-0.309 0,0l0,0z"/>
  <path id="svg_97" fill="#ffffff" d="m268.025,404.244c0,0 0.035,-0.124 0.059,-0.26c0.022,-0.129 0.045,-0.259 0.045,-0.259c-0.156,-0.264 -0.358,-0.247 -0.355,-0.483c-0.141,0.286 -0.048,0.568 0.251,1.002z"/>
  <path id="svg_98" fill="#ffffff" d="m267.995,405.228l0.116,-0.227c-0.063,-0.113 -0.109,-0.147 -0.116,0.227z"/>
  <path id="svg_99" fill="#ffffff" d="m268.315,404.516c0.011,0.01 -0.194,0.493 -0.204,0.485c0.098,0.192 0.231,0.591 0.114,-0.176c0.086,0.378 0.051,0.003 0.09,-0.309z"/>
  <path id="svg_100" fill="#ffffff" d="m268.561,404.636c0.264,0.218 0.58,0.257 0.427,0.814c0.562,-0.463 0.02,-1.199 -0.427,-0.814z"/>
  <path id="svg_101" fill="#ffffff" d="m271.911,406.472c0,0 0.546,0.069 0.542,0.057l-0.041,-0.551c0.026,0.287 -0.765,0.202 -0.501,0.494z"/>
  <path id="svg_102" fill="#ffffff" d="m265.947,403.778c-0.037,0.276 0.195,0.737 0.239,1.091l0.431,-0.317c-0.221,-0.19 -0.64,-0.364 -0.67,-0.774z"/>
  <path id="svg_103" fill="#ffffff" d="m266.187,404.869l-0.645,0.475c0.575,0.055 0.681,-0.17 0.645,-0.475z"/>
  <path id="svg_104" fill="#ffffff" d="m268.265,406.648c0.029,-0.007 0.434,-1.139 0.398,-1.152c0.043,0.016 -0.502,1.19 -0.536,1.205l0.138,-0.053z"/>
  <polygon id="svg_105" fill="#ffffff" points="263.486,403.744 263.852,403.104 263.201,404.07         "/>
  <path id="svg_106" fill="#ffffff" d="m261.854,403.855c0.27,-0.529 -0.371,-0.896 -0.085,-1.223c-0.443,0.095 -0.822,0.55 -1.163,0.959c0.363,-0.228 0.748,-0.169 1.248,0.264z"/>
  <path id="svg_107" fill="#ffffff" d="m260.034,404.188c0.181,-0.127 0.368,-0.354 0.572,-0.597c-0.192,0.123 -0.381,0.299 -0.572,0.597z"/>
  <path id="svg_108" fill="#ffffff" d="m264.444,405.207c-0.05,-0.168 -0.146,-0.605 -0.507,-0.79l0.253,0.778c0.079,0.003 0.165,0.007 0.254,0.012z"/>
  <path id="svg_109" fill="#ffffff" d="m264.199,405.22l-0.009,-0.024c-0.274,-0.021 -0.465,-0.037 -0.547,-0.043c0.071,0.007 0.238,0.028 0.556,0.067z"/>
  <path id="svg_110" fill="#ffffff" d="m264.509,405.21c-0.023,-0.001 -0.041,-0.002 -0.064,-0.003c0.024,0.076 0.038,0.102 0.064,0.003z"/>
  <path id="svg_111" fill="#ffffff" d="m267.028,406.115c-0.115,0.221 -0.288,0.463 -0.426,0.719c-0.165,0.25 -0.121,0.545 0.191,0.859c0.19,-0.544 -0.118,-0.905 0.235,-1.578z"/>
  <path id="svg_112" fill="#ffffff" d="m264.823,406.183l0.685,0.178c-0.014,-0.206 -0.138,-0.505 0.05,-0.721l-0.735,0.543z"/>
  <polygon id="svg_113" fill="#ffffff" points="264.488,406.429 264.823,406.183 264.569,406.116         "/>
  <path id="svg_114" fill="#ffffff" d="m261.206,404.916c-0.295,0.338 -0.619,0.367 -0.984,0.422c0.392,0.152 0.797,0.234 1.181,0.233c0.054,-0.245 0.223,-0.682 -0.197,-0.655z"/>
  <path id="svg_115" fill="#ffffff" d="m262.661,405.132c-0.021,0.015 -0.046,0.031 -0.066,0.045c0.041,0.065 0.073,0.087 0.066,-0.045z"/>
  <path id="svg_116" fill="#ffffff" d="m256.626,405.332c0.019,0.045 0.038,0.094 0.058,0.142l0.014,-0.135l-0.072,-0.007z"/>
  <path id="svg_117" fill="#ffffff" d="m261.469,405.716c0.294,0.15 0.47,-0.04 0.638,-0.28c-0.221,0.078 -0.454,0.13 -0.704,0.136c-0.025,0.11 -0.029,0.183 0.066,0.144z"/>
  <path id="svg_118" fill="#ffffff" d="m259.03,404.552c0.153,0.162 0.327,0.3 0.51,0.428c-0.149,-0.247 -0.455,-0.631 -0.51,-0.428z"/>
  <path id="svg_119" fill="#ffffff" d="m262.496,404.961c0.015,-0.012 0.028,-0.026 0.044,-0.034c-0.097,-0.167 -0.084,-0.085 -0.044,0.034z"/>
  <path id="svg_120" fill="#ffffff" d="m262.496,404.961c-0.151,0.113 -0.271,0.305 -0.39,0.475c0.179,-0.061 0.345,-0.145 0.488,-0.259c-0.035,-0.056 -0.072,-0.139 -0.098,-0.216z"/>
  <path id="svg_121" fill="#ffffff" d="m255.537,410.324c0.052,-0.721 0.826,-1.387 1.494,-0.614c0.657,-0.539 0.228,-2.911 -0.347,-4.236c-0.021,0.314 -0.021,0.604 -0.697,1.03c0.237,0.394 1.5,0.921 0.93,1.573c-0.896,0.371 -0.734,-0.255 -1.169,-0.637c0.37,0.898 -1.14,1.308 -0.945,2.628l0.786,-0.465c0.014,0.206 -0.271,0.534 -0.052,0.721z"/>
  <path id="svg_122" fill="#ffffff" d="m257.973,405.547l0.277,-0.089c-0.316,-0.126 -0.544,-0.414 -0.962,-0.979c-0.463,0.353 -0.559,0.619 -0.591,0.859l1.37,0.101l-0.094,0.108z"/>
  <path id="svg_123" fill="#ffffff" d="m259.5,405.454c-0.218,0.784 -0.886,1.118 -0.477,1.967c0.816,-0.054 0.572,-0.654 1.061,-0.995c-1.318,0.194 0.378,-0.437 -0.574,-0.882c0.26,-0.133 0.492,-0.174 0.712,-0.206c-0.237,-0.096 -0.466,-0.214 -0.682,-0.358c0.012,0.019 0.021,0.031 0.03,0.048l0.007,-0.002l-0.002,0.013c0.058,0.098 0.076,0.157 0.012,0.1c-0.004,0.011 -0.021,0.015 -0.027,0.017c-0.009,0.109 -0.033,0.204 -0.06,0.296c-0.382,-0.162 -0.06,-0.204 0.06,-0.296c0.004,-0.038 0.015,-0.075 0.016,-0.116l-0.005,-0.011l-1.32,0.431c0.279,0.107 0.629,0.084 1.249,-0.006z"/>
  <path id="svg_124" fill="#ffffff" d="m266.125,409.389c-0.041,-0.069 -0.039,-0.125 -0.043,-0.182c-0.085,0.096 -0.117,0.161 0.043,0.182z"/>
  <path id="svg_125" fill="#ffffff" d="m265.582,408.915c0.096,-0.109 0.176,-0.424 0.487,-0.342c0.271,0.235 -0.001,0.376 0.013,0.634c0.188,-0.209 0.658,-0.563 0.068,-0.944l-0.093,0.106c-0.531,-0.27 -1.215,-1.247 -1.122,-1.355c0.156,0.706 0.293,1.209 0.647,1.901z"/>
  <path id="svg_126" fill="#ffffff" d="m262.503,407.385l-1.1,0.385l0.56,0.679l-0.028,-0.407c0.626,0.158 0.49,-0.344 0.568,-0.657z"/>
  <polygon id="svg_127" fill="#ffffff" points="256.5,404.941 256.646,404.113 256.011,405.283         "/>
  <polygon id="svg_128" fill="#ffffff" points="255.072,405.041 255.125,404.32 254.748,404.755         "/>
  <path id="svg_129" fill="#ffffff" d="m247.447,336.415l0.382,-0.205c-0.181,0.064 -0.296,0.133 -0.382,0.205z"/>
  <path id="svg_130" fill="#ffffff" d="m244.683,336.366l-0.067,0.354c0.127,-0.195 0.18,-0.339 0.067,-0.354z"/>
  <path id="svg_131" fill="#ffffff" d="m238.35,385.237c0.673,-0.557 1.715,-1.178 0.906,-1.11l-0.79,0.171c0.141,0.389 0.053,0.686 -0.116,0.939z"/>
  <path id="svg_132" fill="#ffffff" d="m233.635,356.831c-0.078,0.053 -0.16,0.107 -0.241,0.163c0.271,0.135 0.524,0.26 0.755,0.375c-0.155,-0.163 -0.33,-0.347 -0.514,-0.538z"/>
  <path id="svg_133" fill="#ffffff" d="m230.368,356.438l0.509,-0.733c-0.178,0.165 -0.348,0.401 -0.509,0.733z"/>
  <path id="svg_134" fill="#ffffff" d="m262.547,335.578l0.445,-0.805c-0.697,0.004 -0.39,0.411 -0.445,0.805z"/>
  <path id="svg_135" fill="#ffffff" d="m240.656,404.358c-0.033,-0.435 -0.13,-0.621 -0.226,-0.783c-0.079,0.539 -0.208,1.264 0.226,0.783z"/>
  <path id="svg_136" fill="#ffffff" d="m246.359,344.794c0.234,-0.143 0.333,-0.304 0.327,-0.479c-0.24,0.134 -0.376,0.285 -0.327,0.479z"/>
  <path id="svg_137" fill="#ffffff" d="m239.913,403.063c-0.029,0.084 -0.029,0.144 -0.046,0.224c0.216,0.063 0.433,0.098 0.563,0.289c0.046,-0.409 0.049,-0.689 -0.517,-0.513z"/>
  <path id="svg_138" fill="#ffffff" d="m281.159,382.237c-0.036,0.034 -0.053,0.074 -0.095,0.104c0.108,0.012 0.113,-0.035 0.095,-0.104z"/>
  <path id="svg_139" fill="#ffffff" d="m273.191,395.731c-0.049,-0.133 -0.05,-0.35 -0.061,-0.554c-0.054,0.1 -0.048,0.267 0.061,0.554z"/>
  <path id="svg_140" fill="#ffffff" d="m248.387,404.697c0.358,-0.052 0.056,-0.088 0,0l0,0z"/>
  <path id="svg_141" fill="#ffffff" d="m250.128,407.819c-0.076,0.089 -0.134,0.202 -0.143,0.384c0.03,-0.19 0.08,-0.31 0.143,-0.384z"/>
  <path id="svg_142" fill="#ffffff" d="m234.366,403.227c-0.003,-0.011 -0.005,-0.019 -0.008,-0.03c-0.108,0.156 -0.086,0.127 0.008,0.03z"/>
  <path id="svg_143" fill="#ffffff" d="m248.925,405.056c-0.134,-0.097 -0.289,-0.178 -0.458,-0.234c0.075,0.061 0.214,0.137 0.458,0.234z"/>
  <path id="svg_144" fill="#ffffff" d="m248.853,404.683c0.124,0.03 0.221,0.054 0.313,0.076c0.045,-0.132 0.005,-0.214 -0.313,-0.076z"/>
  <path id="svg_145" fill="#ffffff" d="m247.888,404.738c0.205,-0.012 0.396,0.025 0.58,0.083c-0.07,-0.054 -0.1,-0.099 -0.081,-0.124c-0.106,0.012 -0.254,0.028 -0.499,0.041z"/>
  <path id="svg_146" fill="#ffffff" d="m279.046,356.355c-0.025,0.023 -0.041,0.051 -0.074,0.077c0.327,0.362 0.274,0.203 0.074,-0.077z"/>
  <path id="svg_147" fill="#ffffff" d="m230.15,375.915c0.008,0.017 0.029,0.025 0.038,0.041c0.009,-0.017 0.02,-0.038 0.027,-0.054l-0.065,0.013z"/>
  <path id="svg_148" fill="#ffffff" d="m229.562,374.628c0.983,0.548 0.862,0.86 0.654,1.274l2.277,-0.425l-2.931,-0.849z"/>
  <path id="svg_149" fill="#ffffff" d="m254.067,336.188l-0.904,-0.709c1.09,-1.168 1.879,-0.766 1.031,-1.764c-0.127,2.473 -3.512,0.254 -3.637,2.723l-0.596,-0.52c0.171,0.024 0.198,-0.121 0.367,-0.097c-1.158,-1.184 -0.86,1.787 -2.353,1.436c-0.52,-0.189 -0.883,-0.549 -0.528,-0.842l-1.159,0.611c-0.337,-0.049 -0.255,-0.478 0.081,-0.431l-1.768,0.197l0.013,-0.072c-0.27,0.393 -0.773,0.977 -1.187,1.259c-0.594,-0.326 0.283,-0.275 0.129,-0.577c0,0 -0.316,0.166 -0.632,0.331c-0.31,0.159 -0.601,0.353 -0.601,0.352c-0.291,-0.28 -0.209,-0.612 0.09,-0.881c0.297,-0.246 0.813,-0.406 1.284,-0.379c-0.664,-1.205 -1.019,-1.037 -1.468,-0.711c-0.478,0.37 -1.015,0.797 -2.593,0.5c0,0 0.312,-0.163 0.624,-0.326c0.315,-0.164 0.642,-0.313 0.641,-0.313c-0.578,-0.598 -1.154,-0.674 -1.8,-0.661c-0.637,0.057 -1.352,0.178 -2.321,0.164c0.281,0.1 1.305,0.279 2.013,0.642c0.716,0.355 1.114,0.842 0.51,1.378c-0.448,-0.033 -1.049,0.07 -1.54,0.882c-0.394,-0.796 -1.039,-0.242 -1.851,0.349l-0.579,-1.011c-0.777,0.939 -0.325,1.379 -0.501,2.165c-0.952,0.69 -1.77,0.239 -2.531,-0.048c-0.791,0.73 -0.26,0.688 0.249,0.736c0.516,0.049 0.997,0.197 0.328,1.108c-1.338,0.97 -1.619,2.306 -1.643,4.238c-0.75,0.876 -0.602,-0.429 -1.049,-0.179c0,0 0.134,0.312 0.269,0.622c0.13,0.303 0.302,0.6 0.302,0.6c-0.082,0.219 -0.337,0.071 -0.466,-0.007c0.157,0.88 1.07,0.38 1.152,1.594c0.622,0.27 0.02,0.729 -0.443,1.464c-0.5,0.83 -0.897,1.418 -0.177,2.015c-0.331,0.282 -0.713,-0.136 -1.164,-0.05c0.955,1.568 0.694,1.345 1.98,2.632l-0.764,1.097c0.874,-0.806 1.908,0.224 2.758,1.126c0.422,-0.286 0.792,-0.53 0.968,-0.694l0.625,1.439c-0.191,0.174 -0.591,0.029 -1.078,-0.207c0.097,0.099 0.191,0.191 0.28,0.264c-0.431,0.515 -1.102,0.248 -1.752,-0.121c0.229,-0.175 0.475,-0.349 0.717,-0.518c-0.707,-0.356 -1.49,-0.688 -2.171,-0.614c0.134,0.093 0.25,0.273 0.315,0.472c-0.192,-0.093 -0.364,-0.152 -0.479,-0.109c-0.123,0.049 0.134,0.199 0.432,0.435l-1.298,0.327l0.516,0.079l-0.813,1.883c1.307,1.348 3.229,2.52 3.766,4.658c-0.952,-0.53 -1.555,-0.114 -2.682,-0.143c1.194,-0.584 -0.507,-1.656 -0.265,-2.765c-0.125,0.578 -0.662,0.451 -0.85,0.304l1.086,1.977c-0.922,-0.044 -0.691,0.42 -1.073,0.937c1.823,-0.391 1.214,1.474 1.772,2.277c-0.612,0.05 -1.237,-0.143 -1.089,-1.124c-1.373,1.083 2.141,1.399 0.974,2.462c-0.014,-0.24 0.08,-0.369 -0.231,-0.464c0.544,0.56 0.113,1.928 -0.42,1.606l-0.012,-0.239c-0.216,1.591 -0.014,4.842 1.534,5.079c-0.2,0.017 -1.866,-0.208 -2.179,-0.305l5.209,2.839c-1.33,-0.25 -4.496,0.709 -5.247,-0.609c-0.189,0.379 -0.41,0.847 0.058,1.646c0.189,-0.259 1.923,-0.644 2.044,-0.291c-1.48,0.969 -0.792,0.673 -2.054,1.867c0.285,-0.387 2.37,0.043 2.303,0.655c-0.312,-0.096 -2.058,0.051 -2.275,-0.173l2.047,1.523c-0.369,-0.38 -1.735,-0.067 -2.313,0.273c0.4,-0.158 -0.037,1.317 0.166,1.724l0.474,-0.646c-0.31,1.721 2.878,1.699 2.771,3.405c-0.423,-0.206 -2.602,-0.51 -2.859,0.357c1.048,0.398 5.041,1.762 5.849,3.271l-0.599,0.29l0.683,1.158c-1.577,-0.722 -4.896,-2.745 -6.188,-3.851c-0.475,0.644 -0.706,0.179 -0.652,1.144c-0.562,0.34 -0.852,-0.525 -0.885,-0.81l-0.363,2.244c1.225,-0.1 1.228,1.716 2.247,1.631l-1.269,-2.438c1.222,-0.099 3.474,1.409 3.257,2.999c-0.487,0.404 -2.178,-0.303 -2.586,-0.27c0.421,0.207 0.804,1.51 0.506,1.655l-0.655,-0.674c-0.46,0.885 1.622,1.444 0.454,2.508c-0.078,0.367 -1.576,1.097 -0.851,1.16c1.396,-0.599 5.714,-0.716 6.764,-0.317c-0.094,0.129 -1.335,1.928 -2.024,2.348c-1.095,0.604 -2.609,-0.908 -3.549,-0.394c0.334,0.022 0.746,0.356 0.879,0.496c-0.286,0.385 -1.036,-0.16 -0.884,0.678c1.22,0.048 -0.051,1.953 1.048,0.396c0.402,0.917 -0.26,1.046 -0.012,2.212c0.37,-0.254 1.072,-0.087 1.762,0.146c0.716,0.237 1.351,0.542 1.667,0.826c-0.313,0.061 -0.64,0.365 -0.782,0.52c0.521,1.591 0.606,2.727 1.756,3.989c-0.122,0.319 0.284,1.163 -0.35,1.313c0.351,0.019 0.788,-0.129 1.247,0.165c0.239,1.525 -1.113,-0.64 -1.247,0.881c0.259,-0.255 0.723,-0.215 1.221,-0.113c0.505,0.091 1.072,0.214 1.517,0.205c0.147,-0.54 -0.173,-0.811 -0.676,-0.948c-0.478,-0.168 -1.161,-0.229 -1.598,-0.34c0.502,-0.575 1.265,-0.941 2.054,-1.22c0.387,-0.126 0.786,-0.234 1.181,-0.327c0.383,-0.073 0.766,-0.143 1.128,-0.172c1.059,0.035 0.053,1.09 0.293,0.958c0.952,0.488 1.559,-0.132 1.959,-0.641c0.207,-0.243 0.383,-0.495 0.585,-0.605c0.101,-0.054 0.208,-0.07 0.334,-0.035c0.143,0.032 0.393,0.103 0.636,0.243c0.805,0.978 0.036,1.946 0.215,2.652c-0.53,0.188 -0.944,0.03 -1.271,-0.191c-0.335,-0.203 -0.594,-0.47 -0.913,-0.51c0,0 0.184,0.146 0.367,0.291c0.189,0.141 0.392,0.259 0.392,0.259c-0.334,0.335 -1.083,0.444 -1.399,0.105c0.113,0.253 0.435,0.414 0.876,0.556c0.44,0.106 1.024,0.168 1.609,0.175c1.184,0.034 2.519,0.06 3.462,0.466c0.335,-0.329 0.914,-0.668 0.64,-1.062l-0.597,0.137c-0.548,-0.789 1.123,-1.091 0.368,-1.46c0.801,-0.555 1.698,-1.427 2.825,-0.98l0.211,1.116c-0.024,-0.326 -0.736,-0.665 -1.053,-0.325c0.47,-0.494 1.728,1.511 2.243,0.05l-0.79,-0.773c0.804,-0.561 1.797,-1.745 2.795,-1.394c-0.454,-1.102 -0.23,0.127 -0.939,-1.163c0.615,1.604 -2.555,-0.067 -1.566,1.618c-0.728,-1.496 -1.26,-0.635 -2.212,-1.91c0.03,0.368 0.337,0.704 -0.501,0.522c-0.038,0.107 -0.127,0.244 -0.184,0.324c-0.026,-0.009 -0.035,-0.016 -0.057,-0.027l0.046,0.043c-0.036,0.056 -0.04,0.067 0.018,0.016c0.199,0.161 0.361,0.354 0.427,0.56c-0.416,0.846 -1.749,0.818 -2.2,1.256c-0.498,-0.175 0.208,-0.422 -0.063,-0.814l-0.674,0.653c-0.066,-0.817 -1.321,-1.357 -0.149,-1.837l-1.055,-0.036c-0.311,-0.229 -0.679,-0.39 -1.037,-0.449c-0.156,-0.032 -0.404,-0.03 -0.468,-0.016c-0.078,0.017 -0.152,0.065 -0.222,0.147c-0.211,-0.16 -0.749,0.813 -0.439,0.226c0,0 -0.229,0.106 -0.476,0.176c-0.254,0.066 -0.509,0.132 -0.509,0.132l0.053,-0.198c-0.389,-0.208 -0.964,-0.044 -1.492,-0.205c-0.278,-0.045 -0.5,-0.212 -0.684,-0.416c-0.144,-0.252 -0.251,-0.552 -0.136,-1.006c-0.35,-0.07 -0.785,-0.189 -0.855,-0.765l0.558,-0.44c-0.21,-0.082 -0.149,-0.418 -0.141,-0.66c0.041,-0.26 0.005,-0.438 -0.351,-0.414c0.865,-0.449 0.89,-0.737 0.785,-1.097c-0.024,-0.103 -0.071,-0.152 -0.116,-0.304c-0.037,-0.23 -0.073,-0.458 -0.107,-0.676c-0.063,-0.436 -0.092,-0.835 -0.008,-1.146l-0.923,-0.047c0.052,-0.854 -0.209,-1.673 -0.58,-2.732l-0.816,0.064c-0.67,-0.913 0.58,-2.35 0.497,-3.795c0.312,0.099 0.23,0.465 0.042,0.725c1.843,-1.728 -1.341,-3.645 0.002,-5.211c-0.297,-0.39 -0.196,-0.673 0.009,-0.946c0.002,0.036 0.017,0.069 0.042,0.097c0.011,-0.04 0.012,-0.1 0.011,-0.16c0.14,-0.172 0.303,-0.35 0.434,-0.542c-0.198,0.163 -0.362,0.32 -0.438,0.456c-0.017,-0.301 -0.118,-0.758 -0.322,-1.205l0.876,-0.19c-0.011,-0.036 -0.01,-0.066 -0.025,-0.104c0.324,-0.439 -0.415,-0.354 -1.074,-0.119c-0.144,-0.226 -0.317,-0.432 -0.528,-0.592c1.414,-0.356 -0.477,-1.174 1.032,-1.661c-0.736,-0.302 -0.554,-2.25 -2.102,-2.488c0.201,-0.016 0.297,-0.147 0.311,0.095c0.176,-0.499 0.352,-0.998 -0.083,-1.445l1.113,-0.212l-1.498,-1.089c0.68,-0.662 1.074,-0.937 1.932,-0.279c-1.319,-1.587 -0.497,-1.287 -1.804,-2.637l0.72,0.065c-0.028,-0.482 -0.993,-1.253 -0.397,-1.544c1.37,-1.079 0.189,-5.34 1.462,-8.109c-2.121,0.537 0.951,-1.287 -0.693,-1.397c0.501,-0.161 0.785,-0.547 1.221,-0.099c-0.493,-1.413 0.796,-2.124 -0.591,-3.1c0.504,-0.162 0.736,0.303 1.033,0.158c-0.108,-0.113 -0.437,-0.449 -0.137,-0.596c0.299,-0.145 0.421,0.207 0.641,0.431c-0.085,-1.444 -1.631,-1.59 -3.083,-1.695c0.688,-0.731 0.59,-1.097 -0.362,-1.625c0.475,-0.255 0.972,-0.68 1.143,0.217c0.069,-0.504 0.696,-3.083 -0.468,-3.135c0.295,-0.158 0.086,-0.705 -0.048,-0.838c0.048,-0.566 0.074,-0.875 0.1,-1.18c0.01,-0.153 0.015,-0.306 0.011,-0.488c-0.005,-0.186 -0.001,-0.313 -0.021,-0.534l-0.202,0.228c-0.692,-0.191 -0.759,-0.41 -0.673,-0.645c0.117,-0.236 0.379,-0.48 0.362,-0.856l0.136,0.051c0.688,-0.682 0.636,-0.83 0.603,-1.037c-0.051,-0.188 -0.055,-0.429 0.801,-0.845l-0.807,-0.338c-0.801,-0.51 -0.322,-0.754 0.284,-0.929c0.324,-0.075 0.674,-0.137 0.942,-0.242c0.289,-0.091 0.488,-0.234 0.516,-0.535c0,0 -0.146,-0.023 -0.292,-0.047c-0.15,-0.021 -0.3,-0.04 -0.3,-0.04c-0.063,-0.434 0.703,-0.257 1.429,0.094c0.746,0.351 1.463,0.897 1.669,0.892c0.154,0.093 0.039,0.282 0.034,0.45c1.345,0.447 -0.562,-1.021 0.008,-1.661c0.401,0.491 0.59,1.459 1.022,1.375c0.19,0.173 0.257,-0.383 0.531,-0.896c0.254,-0.507 0.757,-0.93 1.137,-0.342c-0.168,-0.47 -0.415,-0.933 -0.024,-1.308c0.248,-0.112 0.905,0.341 1.496,0.625c0.595,0.283 1.18,0.4 1.584,-0.35c0.114,0.13 0.157,0.255 0.162,0.373c0.686,-0.387 2.228,-0.643 2.641,-1.455c0.634,3.016 4.262,-1.466 4.247,1.314l2.109,-0.148l-0.055,0.283c1.348,0.185 1.824,-0.481 2.298,-1.15c0.312,0.189 0.084,0.449 0.059,0.596c1.969,0.561 2.165,0.442 3.816,-0.943l0.172,0.902c0.433,-0.522 2.879,1.41 4.746,0.367c-0.022,0.103 -0.016,0.271 -0.18,0.399c0.799,-0.525 1.566,0.236 2.041,0.787c0.511,0.535 0.805,0.84 1.972,-0.379c-0.021,-0.025 1.328,-0.016 1.334,0.028c-0.453,-0.584 -0.246,-0.809 0.153,-1.021c0.388,-0.212 0.915,-0.307 0.81,-0.762c0.332,0.164 0.519,0.662 0.483,1.044c-0.04,0.393 -0.257,0.653 -0.579,0.429l0.023,-0.199c-0.683,0.519 -0.461,0.956 -0.215,1.362c0.229,0.425 0.511,0.834 -0.002,1.141c0.378,0.526 0.594,1.145 0.728,1.754c0.079,0.626 0.121,1.24 -0.005,1.837c-0.108,0.847 -0.216,1.687 -0.322,2.518c-0.098,0.871 -0.171,1.735 -0.189,2.59l1.331,-0.394l-0.076,1.192c-0.31,0.313 -1.041,0.421 -0.986,-0.431c-0.755,0.447 0.632,1.428 0.921,1.451c-0.539,1.667 -1.552,-0.65 -1.583,-0.14l0.099,0.694l0.155,-0.156c0.544,0.563 1.121,0.612 1.055,1.635c-0.266,0.647 -0.82,0.332 -0.872,0.587c-0.094,-0.002 -0.139,0.084 -0.038,0.391l-0.114,1.503l1.052,-0.601c0.518,0.666 -0.056,1.413 1.136,0.72c-0.427,0.236 -0.69,0.664 -0.852,1.195c-0.533,1.471 0.06,3.854 -0.378,4.26c0.767,0.789 0.753,1.567 0.66,2.533c0.22,-0.24 1.4,-0.384 1.256,0.448c-2.438,-0.305 -1.058,1.524 -2.813,2.197c1.163,-0.602 0.287,2.365 1.939,1.422c-0.197,0.695 -0.913,0.043 -1.487,0.569c0.945,1.653 -0.613,3.643 -0.295,5.687c0.32,0.031 0.81,-0.311 1.286,0.128l-1.6,1.078c0.156,0.403 1.847,0.372 0.735,1.109c0.27,-0.104 0.676,-0.26 0.778,0.011c-1.56,4.003 1.277,8.179 -1.653,12.243c0.62,-0.55 0.682,-0.183 0.705,0.237c0.148,-0.273 0.79,0.006 1.225,-0.048l-1.205,1.702c1.204,0.311 0.082,1.824 1.232,2.002l-0.207,-0.539c1.358,0.717 3.02,-1.003 4.764,-0.897c-1.545,-0.803 2.287,-2.116 0.076,-3.433c0.355,-0.291 0.562,0.248 0.966,0.092c-0.747,-0.333 -0.903,-0.736 -0.568,-1.483l0.186,0.085c-0.183,-2.099 0.555,-2.998 1.045,-5.355l-0.862,0.175c0.115,-0.507 0.386,-0.613 0.602,-0.851c-1.307,-0.581 -0.073,1.423 -1.515,0.893c1.754,-0.671 0.026,-3.571 2.02,-4.025c0.011,-0.779 -0.998,0.229 -0.986,-0.551l0.539,-0.207l-0.695,-0.196c0.115,-0.511 0.79,-0.769 1.247,-0.788c-0.055,0.124 0.128,0.353 0.167,0.485c0.635,-0.662 -0.217,-1.868 -0.01,-2.096l-0.333,0.749c-0.505,-2.127 0.204,-4.724 -0.893,-6.778l-0.407,0.156c-0.753,-1.569 0.446,-1.257 0.099,-2.979l0.097,0.063c-0.405,-0.345 -0.609,-0.805 -0.563,-1.276c0.477,0.436 0.926,-0.818 1.454,-0.248c-0.809,-1.701 -0.636,-0.841 -2.147,-1.965l0.675,-0.259c-0.61,-0.384 -0.933,-0.415 -1.106,-1.275c0.579,0.705 1.028,-0.55 1.794,0.241c1.476,-1.821 -1.49,-2.646 0.668,-3.545c-0.935,-0.508 -1.193,0.012 -1.27,0.448c-0.075,0.436 0.032,0.918 -0.168,0.686c-0.305,0.194 -0.654,0.023 -0.903,-0.268c-0.249,-0.29 -0.398,-0.684 -0.305,-1.047c0.042,-0.682 2.389,-1.159 2.354,-2.874c-0.008,0.171 0.133,0.182 0.125,0.353c0.477,-0.643 -0.646,-1.258 0.129,-2.045c-1.13,-0.441 0.064,-1.022 -1.376,-1.149l0.333,1.573c-0.376,-0.893 -2.063,-1.729 -1.245,-3.197c0.291,0.114 0.673,0.551 0.887,0.852c0.425,-0.43 -0.282,-0.827 0.155,-1.272c1.441,0.127 0.313,1.912 1.412,2.867c0.608,-0.461 -1.044,-1.808 0.518,-1.327c-1.986,-0.69 0.25,-1.69 -1.266,-2.852l0.863,0.077c-0.136,-0.185 -0.543,-0.565 -0.521,-0.903l1.12,0.612c-0.956,-0.94 0.835,-1.813 0.315,-2.715c0.026,1.889 -1.04,0.424 -1.672,1.223c-0.288,-0.582 -0.292,-0.957 -0.141,-1.232c0.147,-0.301 0.436,-0.588 0.752,-0.851c0.616,-0.531 1.393,-1.276 0.702,-3.178c0.295,0.508 -0.106,2.047 -0.637,1.315c0.038,-0.722 0.125,-1.74 0.374,-2.323c-0.537,-1.209 -0.721,-1.003 -0.856,-0.646c-0.144,0.367 -0.284,0.882 -0.709,0.5c0.354,-0.584 0.093,-0.822 -0.293,-0.992c-0.393,-0.172 -0.941,-0.267 -1.35,-0.594l0.749,-0.458c-0.477,-1.332 -1.037,-1.166 -1.444,-1.016c-0.439,0.157 -0.8,0.344 -1.312,-0.704c0,0 0.38,-0.038 0.774,-0.056c0.394,-0.02 0.802,-0.019 0.802,-0.019s-0.273,-0.187 -0.547,-0.372c-0.271,-0.178 -0.542,-0.356 -0.542,-0.356l0.896,-0.503c-1.558,-0.5 -1.714,-0.871 -2.734,-1.909c-0.076,0.695 -1.019,1.208 -1.986,0.72c-0.469,-0.796 0.787,-0.572 -0.78,-1.14c0.546,-0.387 1.27,-0.785 1.575,0.264c0.202,-0.216 0.603,-0.284 0.818,-0.484c-0.515,-1.031 -2.097,-1.195 -2.713,-1.381c0.231,0.117 0.503,0.269 0.603,0.439c0,0 -0.725,0.032 -1.415,0.158c-0.34,0.069 -0.679,0.139 -0.933,0.19c-0.247,0.052 -0.41,0.106 -0.41,0.106c-0.316,-0.383 0.024,-0.605 0.393,-0.794c-0.533,-0.001 -0.949,0.336 -1.679,0.325c0.264,-0.696 0.271,-1.439 1.49,-1.591c0,0 -0.692,0.078 -1.352,0.208c-0.663,0.154 -1.291,0.33 -1.291,0.33c-0.192,-0.318 -0.898,-0.854 -0.693,-1.119c-0.947,-0.42 -2.322,1.385 -3.577,0.831c-0.065,0.138 -0.196,0.271 -0.463,0.373c-1.179,-0.161 -2.224,-1.037 -3.622,-0.059l-0.793,-1.279c-1.095,0.29 1.074,1.611 -0.749,2.094c-1.291,0.408 -0.481,-1.091 -0.935,-1.447c-0.642,0.645 -1.757,1.957 -2.943,0.916c0.384,-0.241 0.692,-0.052 1.058,-0.146zm-14.723,1.313c0.266,-0.316 0.873,-1.032 1.26,-0.604c-0.17,1.093 -0.571,0.662 -1.26,0.604zm-7.396,21.317c-0.291,-0.194 -0.147,-0.495 0.186,-0.834c0.071,0.246 0.039,0.525 -0.186,0.834zm12.512,46.593c-0.011,0.014 -0.019,0.024 -0.028,0.043c-0.583,-0.342 -0.376,-0.208 0.028,-0.043zm1.212,0.382c0.122,-0.123 0.113,-0.245 0.062,-0.368c-0.084,0.223 -0.357,0.237 -0.667,0.176c0.087,0.229 0.244,0.388 0.605,0.192zm27.465,-45.611l0.229,-0.236c0.252,0.533 0.024,0.383 -0.229,0.236z"/>
  <path id="svg_150" fill="#ffffff" d="m230.746,356.491c0.148,-0.073 0.313,-0.094 0.477,-0.111c-0.147,-0.104 -0.318,-0.106 -0.477,0.111z"/>
  <path id="svg_151" fill="#ffffff" d="m262.464,335.726c0.014,0.008 0.027,0.005 0.041,0.011c0.022,-0.053 0.035,-0.106 0.042,-0.158l-0.083,0.147z"/>
  <path id="svg_152" fill="#ffffff" d="m230.235,398.434c0.127,-0.249 0.287,-0.389 0.454,-0.481c-0.216,-0.015 -0.397,0.1 -0.454,0.481z"/>
  <path id="svg_153" fill="#ffffff" d="m252.094,404.3l-0.776,0.229c0.375,-0.043 0.509,0.148 0.699,0.288c-0.017,-0.206 -0.165,-0.503 0.077,-0.517z"/>
  <path id="svg_154" fill="#ffffff" d="m258.159,409.733c0.096,-0.107 0.203,-0.012 0.298,-0.121l-0.026,-0.407c-0.409,0.026 -0.695,0.356 -0.272,0.528z"/>
  <path id="svg_155" fill="#ffffff" d="m252.813,407.217c0.062,0.74 0.548,0.488 1.092,0.352c-0.033,0.003 -0.063,0.009 -0.096,0c0.16,-1.034 -0.419,-0.692 -0.996,-0.352z"/>
  <path id="svg_156" fill="#ffffff" d="m254.031,407.543c0.163,-0.034 0.349,-0.054 0.493,-0.018c0.064,-0.414 -0.187,-0.087 -0.493,0.018z"/>
  <path id="svg_157" fill="#ffffff" d="m247.209,405.303c0.258,0.19 0.162,-0.944 0.308,-0.644c0.288,-0.94 -1.719,1.138 -0.308,0.644z"/>
  <polygon id="svg_158" fill="#ffffff" points="253.253,409.65 253.058,408.739 252.753,409.475         "/>
  <path id="svg_159" fill="#ffffff" d="m248.959,408.981l0.869,0.253c-0.013,-0.153 0.097,-0.243 0.232,-0.312c-0.534,-0.029 -1.121,-0.21 -1.101,0.059z"/>
  <path id="svg_160" fill="#ffffff" d="m250.061,408.923c0.279,0.019 0.544,-0.002 0.699,-0.151c-0.151,0.009 -0.475,0.04 -0.699,0.151z"/>
  <polygon id="svg_161" fill="#ffffff" points="252.065,409.925 251.808,409.734 251.195,409.667         "/>
  <path id="svg_162" fill="#ffffff" d="m240.094,408c0,0 -0.909,-0.138 -0.902,-0.165c-0.235,0.219 -0.119,0.533 0.258,0.565c0.299,-0.097 0.643,-0.065 0.644,-0.4z"/>
  <path id="svg_163" fill="#ffffff" d="m242.273,411.189c-0.269,-0.232 -0.255,-0.437 -0.361,-0.756l-0.232,1.106l0.593,-0.35z"/>
  <path id="svg_164" fill="#ffffff" d="m239.071,410.571c-0.205,0.253 -1.939,0.061 -0.533,0.664c0.246,-0.203 1.409,-0.039 0.533,-0.664z"/>
  <polygon id="svg_165" fill="#ffffff" points="233.335,396.968 233.35,397.209 235.203,397.174         "/>
  <path id="svg_166" fill="#ffffff" d="m228.9,384.375c-0.444,1.123 1.144,0.267 0.589,1.282c0.439,0.264 0.453,-0.83 0.831,-0.56c-0.462,-0.678 -0.2,-1.034 -1.42,-0.722z"/>
  <path id="svg_167" fill="#ffffff" d="m230.32,385.098c0.073,0.108 0.162,0.224 0.282,0.346c-0.116,-0.197 -0.205,-0.29 -0.282,-0.346z"/>
  <polygon id="svg_168" fill="#ffffff" points="272.195,397.971 271.81,398.582 272.432,398.188         "/>
  <path id="svg_169" fill="#ffffff" d="m273.57,399.145l-1.182,0.144l1.069,0.367c-0.052,-0.138 -0.153,-0.407 0.113,-0.511z"/>
  <path id="svg_170" fill="#ffffff" d="m235.593,336.611l0.068,0.292c0.313,0.178 0.539,0.041 1.043,-0.145c0,0 -0.278,-0.046 -0.555,-0.091c-0.278,-0.027 -0.556,-0.056 -0.556,-0.056z"/>
  <polygon id="svg_171" fill="#ffffff" points="248.358,335.259 248.189,335.234 248.504,336.304         "/>
  <path id="svg_172" fill="#ffffff" d="m256.582,333.896c-0.335,-0.045 -0.73,0.194 -1.067,0.148c0.732,-0.192 1.158,1.185 1.067,-0.148z"/>
 </g>
</svg>