<?xml version="1.0" ?><svg viewBox="0 0 412.82 409.49" xmlns="http://www.w3.org/2000/svg"><title/><g data-name="Layer 2" id="Layer_2"><g data-name="light, siren, emergency, police, danger, urgency, signal, alarm, alert" id="light_siren_emergency_police_danger_urgency_signal_alarm_alert"><path d="M185,139.72a5.18,5.18,0,0,0,1.72-.29c2-.68,4.06-1.29,6.12-1.8a5.36,5.36,0,1,0-2.59-10.4c-2.35.58-4.69,1.27-7,2A5.36,5.36,0,0,0,185,139.72Z" fill="#ffffff"/><path d="M155.62,144.75A87.6,87.6,0,0,0,128,185.51a5.35,5.35,0,0,0,3.46,6.74,5.25,5.25,0,0,0,1.64.26,5.36,5.36,0,0,0,5.1-3.72A76.94,76.94,0,0,1,162.45,153a5.36,5.36,0,0,0-6.83-8.26Z" fill="#ffffff"/><path d="M377.26,404.12V386.24a28.38,28.38,0,0,0-28.35-28.35H345.8V345.07a28.08,28.08,0,0,0-28-28.05H104.82V206.79a101.59,101.59,0,0,1,203.18,0v89a5.36,5.36,0,1,0,10.72,0v-89a112.31,112.31,0,0,0-224.62,0V317.07a28.05,28.05,0,0,0-27.08,28v12.82H63.91a28.38,28.38,0,0,0-28.35,28.35v17.88a5.37,5.37,0,0,0,5.36,5.37h331A5.37,5.37,0,0,0,377.26,404.12ZM77.74,345.07a17.34,17.34,0,0,1,17.33-17.33H317.76a17.34,17.34,0,0,1,17.32,17.33v12.82H77.74Zm288.8,53.69H46.28V386.24a17.65,17.65,0,0,1,17.63-17.63h285a17.65,17.65,0,0,1,17.63,17.63Z" fill="#ffffff"/><path d="M171.23,292.68a5.36,5.36,0,0,0,5.36,5.36h69.87a5.36,5.36,0,0,0,0-10.72h-16V259.26a24,24,0,1,0-48,0v28.06h-5.82A5.36,5.36,0,0,0,171.23,292.68Zm21.9-33.42a13.28,13.28,0,1,1,26.56,0v28.06H193.13Z" fill="#ffffff"/><path d="M270.27,287.32a5.36,5.36,0,1,0,0,10.72h1.6a5.36,5.36,0,0,0,0-10.72Z" fill="#ffffff"/><path d="M211.77,40.92V5.36a5.36,5.36,0,0,0-10.72,0V40.92a5.36,5.36,0,0,0,10.72,0Z" fill="#ffffff"/><path d="M90.06,94.1a5.36,5.36,0,0,0,3.76-9.19L68.41,60a5.36,5.36,0,0,0-7.51,7.66l25.41,24.9A5.37,5.37,0,0,0,90.06,94.1Z" fill="#ffffff"/><path d="M46.52,215.25a5.36,5.36,0,0,0-5.36-5.36H5.36a5.36,5.36,0,0,0,0,10.72h35.8A5.36,5.36,0,0,0,46.52,215.25Z" fill="#ffffff"/><path d="M322.76,94.1a5.35,5.35,0,0,0,3.75-1.53l25.41-24.9a5.36,5.36,0,1,0-7.5-7.66L319,84.91a5.36,5.36,0,0,0,3.75,9.19Z" fill="#ffffff"/><path d="M412.82,215.25a5.36,5.36,0,0,0-5.36-5.36H371.67a5.36,5.36,0,1,0,0,10.72h35.79A5.36,5.36,0,0,0,412.82,215.25Z" fill="#ffffff"/></g></g></svg>