<?xml version="1.0" ?><!DOCTYPE svg  PUBLIC '-//W3C//DTD SVG 1.1//EN'  'http://www.w3.org/Graphics/SVG/1.1/DTD/svg11.dtd'><svg height="512px" style="enable-background:new 0 0 512 512;" version="1.1" viewBox="0 0 512 512" width="512px" xml:space="preserve" xmlns="http://www.w3.org/2000/svg" xmlns:xlink="http://www.w3.org/1999/xlink"><g id="_x31_93"><g><g><g><g><g><g><path d="M367.428,125.725c0.241,0.313,0.676-0.322,0.817-0.378         C367.618,124.996,367.309,125.884,367.428,125.725z" style="fill:#ffffff;"/><path d="M361.364,124.074l0.193-0.263c0,0-0.258,0.114-0.516,0.228         c-0.251,0.134-0.501,0.268-0.501,0.268s0.204-0.065,0.408-0.131C361.155,124.118,361.364,124.074,361.364,124.074z" style="fill:#ffffff;"/><path d="M356.104,123.514c0.317,0.612,0.753,0.55,1.272,0.368c0.512-0.14,1.133-0.396,1.57-0.093         l0.113,0.315c0,0,0.141-0.244,0.28-0.488c0.148-0.242,0.298-0.484,0.298-0.484         C358.394,123.051,356.921,123.798,356.104,123.514z" style="fill:#ffffff;"/><path d="M352.428,121.47c0.367,0.417-0.569,0.639,0.815-0.095c-0.091-0.034-0.122-0.059-0.177-0.086         C352.935,121.337,352.751,121.398,352.428,121.47z" style="fill:#ffffff;"/><path d="M353.066,121.289C353.722,121.075,352.513,121.003,353.066,121.289L353.066,121.289z" style="fill:#ffffff;"/><path d="M350.271,122.744c-0.016-0.014,0.61-0.798,0.61-0.798c-0.297-0.194-1.084,0.11-0.903-0.218         C349.24,122.421,349.593,122.573,350.271,122.744z" style="fill:#ffffff;"/><path d="M350.035,123.979l0.278-0.386C350.188,123.523,350.059,123.547,350.035,123.979z" style="fill:#ffffff;"/><path d="M350.959,122.799c0,0-0.168,0.192-0.337,0.385c-0.154,0.205-0.309,0.41-0.309,0.41         c0.213,0.12,0.416,0.488,0.302-0.341C350.729,123.627,350.709,123.213,350.959,122.799z" style="fill:#ffffff;"/><path d="M351.528,122.753c0.556,0.049,1.158,0.025,0.573,0.739c0.672-0.371,0.914-0.716,0.785-0.92         C352.768,122.387,352.24,122.324,351.528,122.753z" style="fill:#ffffff;"/><path d="M356.004,124.884c0,0,0.528,0.31,0.524,0.322l0.395-0.456         C356.728,124.959,355.927,124.469,356.004,124.884z" style="fill:#ffffff;"/><path d="M345.726,125.413c0.17,0.221,0.659,0.382,0.94,0.602l0.08-0.529         C346.456,125.508,346.036,125.681,345.726,125.413z" style="fill:#ffffff;"/><path d="M346.666,126.014l-0.12,0.791C346.992,126.438,346.907,126.204,346.666,126.014z" style="fill:#ffffff;"/><path d="M350.671,125.28c0,0,0.172-0.391,0.345-0.781c0.179-0.406,0.411-0.771,0.411-0.771         s-0.293,0.402-0.525,0.845c-0.241,0.433-0.448,0.853-0.448,0.853L350.671,125.28z" style="fill:#ffffff;"/><polygon points="343.961,127.128 343.768,126.417 343.99,127.561        " style="fill:#ffffff;"/><path d="M342.887,128.361c-0.184-0.566-0.896-0.372-0.925-0.805c-0.247,0.381-0.192,0.97-0.145,1.5         C341.912,128.639,342.227,128.408,342.887,128.361z" style="fill:#ffffff;"/><path d="M341.834,129.883c0.038-0.218,0.01-0.511-0.017-0.826         C341.768,129.279,341.759,129.538,341.834,129.883z" style="fill:#ffffff;"/><path d="M345.673,127.484c-0.153-0.083-0.53-0.324-0.916-0.199l0.729,0.371         C345.543,127.604,345.607,127.544,345.673,127.484z" style="fill:#ffffff;"/><path d="M345.51,127.667l-0.024-0.011c-0.21,0.179-0.354,0.303-0.417,0.356         C345.124,127.969,345.257,127.865,345.51,127.667z" style="fill:#ffffff;"/><path d="M345.721,127.442l-0.048,0.042C345.744,127.521,345.773,127.529,345.721,127.442z" style="fill:#ffffff;"/><path d="M348.473,126.053c-0.042,0.33-0.188,0.765-0.123,1.057c0.088,0.277,0.239,0.507,0.805,0.436         C349.04,126.931,348.354,127.043,348.473,126.053z" style="fill:#ffffff;"/><path d="M346.631,127.907l0.609-0.358c-0.154-0.136-0.453-0.26-0.474-0.545L346.631,127.907z" style="fill:#ffffff;"/><polygon points="346.568,128.318 346.631,127.907 346.405,128.04        " style="fill:#ffffff;"/><path d="M343.178,129.569c0.03,0.448-0.178,0.697-0.397,0.994c0.385-0.168,0.729-0.397,1-0.67         C343.646,129.682,343.455,129.253,343.178,129.569z" style="fill:#ffffff;"/><path d="M344.359,128.693c-0.005,0.024-0.011,0.055-0.016,0.078         C344.419,128.789,344.457,128.781,344.359,128.693z" style="fill:#ffffff;"/><path d="M340.233,133.102c0.048,0.021,0.091,0.039,0.141,0.059c-0.029-0.035-0.053-0.064-0.086-0.104         L340.233,133.102z" style="fill:#ffffff;"/><path d="M343.929,129.949c0.314-0.102,0.304-0.361,0.253-0.649c-0.101,0.211-0.229,0.413-0.401,0.593         C343.841,129.989,343.889,130.043,343.929,129.949z" style="fill:#ffffff;"/><path d="M341.382,130.85c0.224,0.006,0.443-0.019,0.663-0.058         C341.765,130.724,341.277,130.668,341.382,130.85z" style="fill:#ffffff;"/><path d="M344.122,128.689c0.002-0.019,0.001-0.039,0.007-0.056         C343.942,128.583,344.009,128.633,344.122,128.689z" style="fill:#ffffff;"/><path d="M344.122,128.689c-0.027,0.187,0.023,0.406,0.06,0.611c0.083-0.169,0.142-0.346,0.162-0.529         C344.279,128.758,344.194,128.724,344.122,128.689z" style="fill:#ffffff;"/><path d="M342.993,137.402c-0.474-0.546-0.397-1.564,0.621-1.49c0.083-0.846-1.897-2.219-3.24-2.751         c0.208,0.237,0.413,0.442,0.236,1.222c0.445,0.111,1.712-0.41,1.77,0.455c-0.371,0.896-0.699,0.339-1.276,0.377         c0.896,0.374,0.118,1.73,1.189,2.526l0.227-0.884C342.676,136.991,342.706,137.424,342.993,137.402z" style="fill:#ffffff;"/><path d="M341.337,132.302l0.134-0.26c-0.313,0.135-0.678,0.092-1.372-0.011         c-0.078,0.576,0.043,0.833,0.189,1.026l1.04-0.898L341.337,132.302z" style="fill:#ffffff;"/><path d="M342.353,131.156c0.4,0.708,0.164,1.417,1.054,1.728c0.539-0.616-0.059-0.868,0.046-1.454         c-0.795,1.069-0.042-0.577-1.029-0.218c0.089-0.277,0.225-0.471,0.357-0.649c-0.235,0.1-0.48,0.178-0.735,0.229         c0.021,0.005,0.037,0.009,0.056,0.013l0.002-0.006l0.009,0.01c0.108,0.029,0.164,0.058,0.079,0.063         c0.004,0.01-0.005,0.024-0.009,0.031c0.071,0.083,0.121,0.168,0.167,0.251c-0.384,0.156-0.187-0.102-0.167-0.251         c-0.023-0.03-0.043-0.063-0.07-0.094l-0.011-0.004l-0.63,1.238C341.746,131.921,341.977,131.658,342.353,131.156z" style="fill:#ffffff;"/><path d="M349.818,129.254c-0.078-0.02-0.116-0.061-0.158-0.099         C349.667,129.283,349.69,129.353,349.818,129.254z" style="fill:#ffffff;"/><path d="M349.1,129.303c-0.01-0.146-0.176-0.424,0.103-0.587c0.358-0.024,0.265,0.267,0.458,0.439         c-0.015-0.28,0.066-0.864-0.619-0.716l0.009,0.141c-0.566,0.186-1.74-0.023-1.751-0.166         C347.907,128.804,348.359,129.063,349.1,129.303z" style="fill:#ffffff;"/><path d="M345.841,130.398l-0.506,1.049l0.876,0.084l-0.309-0.269         C346.458,130.934,346.007,130.675,345.841,130.398z" style="fill:#ffffff;"/><polygon points="339.868,132.915 339.386,132.226 339.764,133.502        " style="fill:#ffffff;"/><polygon points="338.929,133.995 338.456,133.448 338.497,134.022        " style="fill:#ffffff;"/><path d="M241.936,347.741l1.409-1.698C242.654,346.823,242.23,347.344,241.936,347.741z" style="fill:#ffffff;"/><path d="M230.651,358.957l-0.025,0.526C231.01,358.823,231.122,358.508,230.651,358.957z" style="fill:#ffffff;"/><path d="M176.051,230.929c-1.788-2.739-3.579-6.005-3.878-5.159l0.136,1.253         C173.991,228.504,175.141,229.778,176.051,230.929z" style="fill:#ffffff;"/><path d="M138.642,316.025c-0.161-0.271-0.328-0.553-0.493-0.832c-0.741-0.357-1.438-0.693-2.063-0.994         C136.855,314.748,137.727,315.372,138.642,316.025z" style="fill:#ffffff;"/><path d="M142.549,315.313l2.624,3.344C144.627,317.859,143.788,316.779,142.549,315.313z" style="fill:#ffffff;"/><path d="M302.784,285.709l1.244-2.382C301.194,286.167,302.729,285.205,302.784,285.709z" style="fill:#ffffff;"/><path d="M271.228,202.105c-2.172,1.735-3.817,3.198-5.211,4.537         C268.69,204.609,271.07,203.192,271.228,202.105z" style="fill:#ffffff;"/><path d="M243.434,358.093c0.85-1.052,1.142-1.572,0.99-1.669         C243.541,357.499,243.094,358.159,243.434,358.093z" style="fill:#ffffff;"/><path d="M260.378,212.285c0.4-0.288,0.766-0.598,1.164-0.901c1.334-1.521,2.695-3.033,4.475-4.742         C264.04,208.141,261.903,209.984,260.378,212.285z" style="fill:#ffffff;"/><path d="M373.655,144.57c0.001-0.049-0.016-0.09-0.007-0.141         C373.564,144.498,373.594,144.535,373.655,144.57z" style="fill:#ffffff;"/><path d="M369.746,129.395c0.128,0.059,0.282,0.212,0.435,0.349         C370.148,129.635,370.026,129.521,369.746,129.395z" style="fill:#ffffff;"/><path d="M313.512,158.924C314.934,157.43,313.681,158.631,313.512,158.924L313.512,158.924z" style="fill:#ffffff;"/><path d="M322.808,154.044c-0.247,0.373-0.402,0.688-0.31,0.853         C322.483,154.643,322.601,154.354,322.808,154.044z" style="fill:#ffffff;"/><path d="M249.334,230.277c-0.043,0.042-0.078,0.076-0.128,0.125         C249.75,230.077,249.654,230.131,249.334,230.277z" style="fill:#ffffff;"/><path d="M315.959,156.984c-0.615,0.479-1.304,1.052-2.03,1.698         C314.274,158.425,314.895,157.912,315.959,156.984z" style="fill:#ffffff;"/><path d="M315.4,157.016c0.523-0.481,0.936-0.86,1.327-1.22         C316.818,155.519,316.598,155.623,315.4,157.016z" style="fill:#ffffff;"/><path d="M311.511,160.984c0.825-0.842,1.63-1.594,2.418-2.301c-0.324,0.249-0.476,0.336-0.417,0.241         C313.091,159.358,312.497,159.969,311.511,160.984z" style="fill:#ffffff;"/><path d="M407.758,184.456c0.087-0.065,0.158-0.161,0.243-0.242c0.28-0.758,0.244-1.001,0.208-0.882         C408.164,183.45,408.011,183.891,407.758,184.456z" style="fill:#ffffff;"/><path d="M134.461,238.043c0.063-0.074,0.084-0.125,0.14-0.194c-0.075,0.062-0.168,0.14-0.235,0.196         L134.461,238.043z" style="fill:#ffffff;"/><path d="M129.643,243.694c1.534-2.924,2.887-4.106,4.723-5.648l-3.342,0.122L129.643,243.694z" style="fill:#ffffff;"/><path d="M268.711,320.644l-4.178,3.175c3.611-5.264,7.107-8.189,2.949-5.442         c1.229,2.268-14.11,14.468-12.875,16.726l-2.792,2.056c0.711-0.678,0.72-0.892,1.423-1.561         c-5.55,3.877-2.237,4.766-8.559,10.589c-2.25,1.982-3.98,3.206-2.745,1.556l-4.283,5.147         c-1.406,1.338-1.374,0.699,0.025-0.633l-7.053,7.332l0.002-0.104c-0.751,1.3-2.654,4.05-3.608,5.364         c-2.078,1.578,0.732-1.102,0.045-0.852l-3.559,4.405c-2.075,1.17,0.786-2.57,3.602-5.256         c-5.464,1.974-2.865,3.744-11.91,10.752l3.538-3.982c-1.708,0.717-3.205,1.898-4.885,3.355         c-0.417,0.366-0.85,0.746-1.3,1.141c-0.225,0.197-0.454,0.398-0.687,0.604l-0.176,0.154l-0.083,0.046l-0.154,0.09         c-0.413,0.23-0.903,0.356-1.425,0.294c0.068,0.03,0.188,0.067,0.359,0.116c0.151,0.008,0.375,0.066,0.598,0.047         c0.242,0.015,0.491-0.028,0.765-0.074c0.145-0.051,0.237-0.021,0.451-0.127c0.25-0.146,0.494-0.289,0.725-0.425         c1.865-1.058,3.078-1.436,1.134,0.943c-0.167,0.138-0.34,0.28-0.521,0.43c-0.089,0.076-0.18,0.154-0.272,0.233l-0.185,0.131         c-0.229,0.195-0.499,0.364-0.771,0.581c-0.575,0.388-1.254,0.84-2.235,1.239c-0.086-0.435-0.569-0.491-1.3-0.586         c-0.369-0.025-0.796-0.113-1.271-0.212c-0.459-0.145-0.971-0.308-1.447-0.606c0,0,0.187-0.229,0.373-0.457         c0.179-0.233,0.359-0.466,0.359-0.466c-0.242-0.063-0.409-0.192-0.606-0.244c-0.174-0.108-0.302-0.138-0.502-0.245         c-0.517-0.36-0.918-0.589-1.284-0.773c-0.732-0.37-1.321-0.565-2.413-1.286c-3.352-3.514-3.426-4.863-3.697-6.208         c-5.367-5.628,2.774,4.818-3.888-1.533c-4.257-4.887-7.804-7.761-13.767-12.737c-2.917-3.483,1.063,0.057,0.151-1.327         l-3.493-2.18c-0.679-0.71-0.253-0.688-0.038-0.676c-2.644-2.136-1.019,0.626-5-2.908c-1.92-0.106-6.39-9.039-12.071-12.66         c-0.912-1.38,1.058,0.049,1.026-0.62c-7.056-5.705-5.961-4.979-12.109-9.309l-3.923-5.003         c2.661,3.896-2.26,0.438-6.531-2.631c0.864,1.462,1.597,2.717,2.139,3.508l-6.299-5.415         c-0.572-0.842,0.301-0.535,1.604,0.081c-0.468-0.332-0.913-0.644-1.271-0.876c-1.79-2.399-0.229-1.788,1.731-0.747         c0.541,0.884,1.079,1.762,1.603,2.617c1.947,0.947,3.854,1.746,4.034,0.963c-0.476-0.285-1.291-0.937-2.142-1.697         c0.515,0.242,0.877,0.363,0.784,0.105c-0.112-0.285-0.905-0.715-2.073-1.462l-0.414-2.249l-0.688,0.041l-7.088-8.237         c-6.407-4.559-12.535-7.968-21.616-16.29c2.832,1.485,1.563-0.636,2.478-1.315c1.531,3.219,7.099,6.381,11.437,11.063         c-2.265-2.442-1.368-2.305-0.636-1.839L113.414,287c0.834-0.471-1.219-2.197-3.05-4.568c0.149,1.439-1.564,0.154-3.773-1.849         c-0.546-0.508-1.131-1.052-1.729-1.606c-0.57-0.542-1.274-1.192-1.629-1.577c-0.857-0.889-1.392-1.953-1.771-2.784         c0.265-0.192,0.597-0.099,1.021,0.446c0.227,0.267,0.488,0.64,0.843,1.126c0.405,0.5,0.755,0.899,1.86,2.034         c-0.215-0.336-0.431-0.646-0.648-0.935l-0.16-0.209l-0.09-0.147c-0.061-0.095-0.124-0.184-0.189-0.267         c-0.241-0.349-0.485-0.645-0.711-0.938c-0.457-0.579-0.971-1.101-1.384-1.751c-0.41-0.642-0.767-1.398-0.829-2.303         c-0.056-0.891,0.201-1.954,1.025-2.858c-0.468,0.944-0.697,1.503-0.488,1.972c-0.021-0.623,0.21-1.452,0.638-2.237         c0.201-0.4,0.486-0.769,0.783-1.108c0.167-0.172,0.285-0.312,0.485-0.502c0.209-0.192,0.413-0.381,0.609-0.563         c1.588-1.438,2.823-2.332,2.356-1.488l-0.963,0.981c6.625-6.32,19.711-19.696,19.583-21.756         c0.206,0.077,0.471,2.167,0.301,2.78l7.864-15.233c-0.077,1.958,6.067,0.291,1.231,6.19c1.675-1.408,3.737-3.158,6.655-6.739         c-1.186,0.918-3.98,1.262-2.63-0.261c4.991-2.897,3.298-2.178,9.051-6.147c-0.889,0.687-1.264,0.224-1.1-0.716         c0.073-0.453,0.318-1.096,0.634-1.646c0.296-0.53,0.776-1.1,1.463-1.449c-0.128,0.257,0.195,0.663,0.44,1.102         c0.254,0.451,0.411,0.873,0.154,1.216c0,0,0.052-0.08,0.144-0.22c0.108-0.129,0.263-0.313,0.449-0.533         c0.407-0.41,1.03-0.944,1.796-1.346c0.76-0.415,1.642-0.645,2.333-0.764c0.694-0.117,1.181-0.1,1.181-0.1         c-0.953-0.061-1.065,0.446-0.828,0.916c0.236,0.509,0.737,1.129,1.163,1.639c-0.194-0.287,0.968,0.103,2.013,1.185         c1.603,1.651,3.475,3.606,4.373,4.36l-2.292-2.962c6.779,7.217,8.948,4.877,15.815,11.896         c-1.14-0.541-3.916-0.235-0.566,3.478c2.359,0.877,10.73,3.601,17.444,9.173l0.754,1.601l5.196,4.23         c-4.05-1.819-14.633-7.708-20.044-11.292c2.283,2.954,0.23,1.228,4.19,5.112c0.988,1.782-2.74-1.535-3.918-2.666l8.875,9.388         c0.46-1.272,7.851,6.116,8.224,5.045l-10.815-9.02c0.462-1.266,8.191,3.279,14.508,9.902c1.301,1.99-2.771,0.309-2.925,0.731         c0.285,0.136,0.846,0.552,1.535,1.112c0.34,0.285,0.716,0.602,1.109,0.932c0.193,0.169,0.391,0.342,0.59,0.516l0.772,0.651         c2.182,1.847,4.886,2.609,5.375,2.867c0,0.001-1.297-0.139-2.556-0.591c-0.642-0.19-1.24-0.499-1.709-0.7         c-0.445-0.247-0.742-0.412-0.742-0.412c1.354,1.163,2.891,1.846,4.399,2.181c1.52,0.322,3.014,0.313,4.481,0.104         c2.915-0.462,5.859-1.559,9.107-3.973c1.549-1.438,5.575-3.347,5.321-4.117c-3.424,1.449-6.954-1.128-6.071-3.494         c0.59-0.457,8.789-6.9,10.982-8.119c3.234-1.686-1.849,5.539,0.911,4.108c-0.146-0.326,0.921-1.977,1.394-2.637         c1.771-1.367,0.083,1.382,3.385-2.134c-0.309-1.446,7.008-6.86,0.87-2.354c3.084-3.585,3.724-3.364,7.602-7.317         c-1.813,0.68,1.587-5.446,4.678-9.037c0.026,0.419,1.067-0.04,1.563-0.271c6.915-6.756,10.984-10.028,17.366-16.394         c0.8-0.375,4.133-3.194,3.2-1.506c0.762-1.072,1.307-2.212,3.252-4.199c4.563-3.047-4.267,4.501-0.454,2.512         c-0.262-0.757,4.382-5.788,6.863-8.907c-1.648,0.074-6.621,6.319-9.107,9.441c-1.099-1.073,2.646-7.092,8.807-14.257         c5.025-5.564,2.997-1.594,3.763-2.667c10.136-9.756,6.576-10.37,15.619-17.845c3.969-2.585,1.524,1.229,2.75,1.001         c-4.052,4.576-7.062,6.183-9.958,9.135l3.928-3.272c-1.143,1.603-3.848,4.656-5.617,6.024         c3.369-2.125,16.923-16.683,25.171-23.782c1.131-1.596,3.245-4.189,1.854-3.354l-2.332,2.524         c-2.79,1.674,3.799-5.341,0.464-2.528c2.865-3.65,5.9-7.917,10.801-12.187l1.65-0.072c-0.329-0.132-3.467,2.526-4.516,4.056         c1.562-2.261,8.099-5.962,9.16-9.09l-3.762,2.668c2.874-3.667,6.079-8.547,10.391-12.361         c-2.628,1.07-0.847,1.025-4.646,3.001c3.638-1.369-10.442,10.347-5.229,7.519c-4.021,1.904-5.577,4.679-10.353,7.649         c0.38,0.141,1.87-0.875-1.67,2.409c-0.077,0.23-0.345,0.69-0.519,0.978c-0.113,0.096-0.152,0.129-0.25,0.211         c0.079-0.057,0.14-0.1,0.219-0.157c-0.108,0.187-0.113,0.208,0.081-0.06c0.926-0.698,1.722-1.22,2.134-1.342         c-1.096,2.291-6.539,7.697-8.063,9.84c-2.148,1.9,0.547-1.146-0.836-0.318l-2.277,3.203c-0.85-0.307-6.338,4.417-1.908-0.69         l-4.317,4.267c-2.852,2.202-6.456,5.549-8.356,7.936c-2.149,1.899-4.474,5.752-3.162,3.537l-6.373,7.089l-0.207-0.083         c-6.714,6.568-12.714,14.628-21.35,21.178c-2.091,2.381-4.223,4.871-8.128,8.447l-1.229,0.229         c-2.696,3.045-9.121,8.12-9.833,9.875c-4.442,1.752-14.226,13.638-19.514,18.449l0.463,0.843         c-1.756,1.719-3.421,3.458-5.154,5.339c-0.859,0.947-1.743,1.922-2.669,2.943c-0.852,0.955-1.742,1.952-2.686,3.01         c0,0,0.176,0.116,0.351,0.231c0.182,0.111,0.363,0.223,0.363,0.223c-0.507,0.709-1.36,1.313-2.417,1.627         c-1.055,0.302-2.314,0.307-3.478-0.087c-0.589-0.171-1.139-0.475-1.647-0.819c-0.259-0.168-0.492-0.374-0.723-0.581         c-0.125-0.091-0.214-0.229-0.326-0.335l-0.163-0.168l-0.239-0.26c-1.366-1.5-2.79-3.013-4.275-4.468         c0.621,0.179,2.055,1.729,2.978,2.918c-5.725-8.332-15.776-13.88-21.201-21.204c-1.798-1.378-2.877-2.6-3.845-3.858         c0.149,0.146,0.292,0.268,0.423,0.363c-0.155-0.17-0.396-0.413-0.645-0.659c-0.602-0.8-1.209-1.638-1.899-2.513         c0.524,0.805,1.046,1.558,1.546,2.165c-1.236-1.213-3.166-2.999-5.131-4.675l-0.156-1.396         c-0.154-0.141-0.278-0.256-0.439-0.403c-1.558-2.016-1.729-1.143-1.243,0.276c-1.019-0.815-1.981-1.533-2.783-2.035         c-0.226-1.226-1.504-2.336-2.841-3.521c-0.668-0.592-1.351-1.203-1.924-1.857c-0.143-0.163-0.279-0.329-0.407-0.498         c-0.106-0.153-0.343-0.413-0.495-0.618c-0.332-0.448-0.658-0.875-0.953-1.313c-0.586-0.228-1.867-0.904-3.591-1.418         c-1.722-0.51-3.919-0.763-6.017-0.411c-2.099,0.339-4.041,1.249-5.314,2.296c-1.272,1.031-1.957,2.154-1.905,2.634         c-0.102-0.04-0.304,0.057-0.359,0.04c-0.028-0.008-0.018-0.045,0.059-0.143c0.084-0.101,0.193-0.237,0.527-0.54         c-0.374,0.302-0.585,0.505-0.869,0.753l-0.799,0.718c-0.529,0.48-1.047,0.963-1.545,1.454         c-0.997,0.98-1.913,1.989-2.669,3.054l-1.649,0.074l-3.374,5.493c-3.173,2.213-4.568,3.05-2.5-0.231         c-5.524,7.391-4.887,5.591-9.454,12.007l-0.242-0.776c-1.942,1.982-4.397,5.802-6.003,6.566         c-2.679,1.711-8.144,7.109-14.459,13.376c-0.395,0.392-0.793,0.787-1.194,1.185c-0.45,0.479-1.006,1.052-1.419,1.656         c-0.88,1.204-1.563,2.577-1.991,4.031c-0.859,2.911-0.658,6.128,0.535,8.937c0.594,1.402,1.423,2.712,2.451,3.809         c0.791,0.853,1.571,1.695,2.338,2.521c1.496,1.627,2.915,3.216,4.211,4.737c-0.687-3.687,4.567,5.911,6.176,5.195         c0.302,1.011,1.672,2.782-0.461,1.266c6.1,5.403,8.079,9.204,13.031,12.195c0.302,1.015-1.751-0.711-1.376,0.085         c0.539,0.386,2.136,1.52,2.523,2.33c0.374,0.797-1.14-0.545-2.206-1.301c5.936,5.816,7.624,5.317,9.077,4.719         c2.492,3.464,4.046,4.88,6.87,6.357c0.701,1.372,2.079,3.453-1.693-0.077c2.005,2.104,12.055,13.039,13.088,12.426         c0.435,0.852,2.81,2.932,3.445,3.377c4.56,4.658,4.892,5.138,9.495,9.585l-1.121-1.389c2.779,0.794,3.984,3.54,7.751,7.069         l-0.207-0.003c7.651,9.082,3.956,3.27,11.392,12.339l0.168-1.066c2.097-0.558,6.53,8.096,11.828,12.378l-1.376-2.082         c1.535,1.081,2.912,3.36,4.212,5.719c0.65,1.179,1.282,2.378,1.904,3.456c0.456,0.946,1.617,2.391,2.692,3.145         c0.463,0.361,0.011,0.218-0.682-0.231c-0.351-0.216-0.773-0.49-1.157-0.814c-0.345-0.281-0.691-0.563-0.977-0.796         c0.11,0.132,0.155,0.209,0.312,0.375c0.146,0.154,0.288,0.305,0.425,0.45c0.28,0.287,0.538,0.564,0.816,0.786         c0.539,0.465,1.029,0.847,1.49,1.126c0.896,0.605,1.611,0.863,2.09,1.05c0.997,0.295,1.165,0.144,1.234-0.071         c0.071-0.226,0.053-0.49,0.621-0.582c0.569-0.131,1.695,0.119,4.107,0.002c0.908,0.266,0.364,0.684,0.388,1.013         c0.017,0.157,0.193,0.32,0.822,0.368c0.622,0.026,1.729,0.017,3.472-0.576c0.895-0.176,2.602-0.94,4.32-2.514         c0.204-0.205,0.413-0.416,0.627-0.633c0.191-0.203,0.474-0.487,0.571-0.624c0.269-0.334,0.55-0.684,0.841-1.046         c0.582-0.722,1.203-1.492,1.844-2.288c2.581-3.169,5.597-6.65,8.368-8.585c-1.373,0.7-2.738,1.396-0.61-1.238         c3.528-3.77,11.135-8.595,13.371-12.95c0.556-0.372,0.819-0.46,0.922-0.396c2.516-3.063,8.61-9.52,9.716-11.773         c4.71-0.446,16.305-18.379,18.209-16.351l8.475-8.686l-0.023,0.426c5.615-5.354,7.082-7.765,8.538-10.165         c1.401-1.134,0.659-0.024,0.657,0.184c8.41-7.617,9.124-8.498,14.863-16.195l1.337-0.062         c1.45-2.192,12.585-10.585,19.7-19.188c-0.004,0.149-0.043,0.436-0.577,1.149c8.094-9.592,22.939-19.4,23.857-24.964         l5.263-6.408c-7.73,7.369,0.116-2.133-3.376,0.587c2.833-3.105,8.376-6.976,4.848-3.207l-0.688,0.455         c-0.129,2.551,9.811-8.953,10.433-7.925c14.796-14.915,29.945-28.724,43.912-42.588l-2.544,0.662c0,0,1.227-1.2,2.454-2.4         c0.307-0.3,0.613-0.6,0.901-0.881c0.337-0.359,0.669-0.712,0.93-1.019c0.244-0.326,0.447-0.597,0.59-0.787         c0.146-0.188,0.21-0.308,0.21-0.308c0.738-0.878,1.271-1.514,1.343-1.142c0.034,0.187-0.053,0.63-0.427,1.362         c-0.169,0.377-0.449,0.796-0.802,1.296c-0.169,0.257-0.393,0.501-0.631,0.771c-0.237,0.268-0.523,0.58-0.716,0.758         c0.259-0.113,0.689-0.496,1.075-0.877c0.402-0.383,0.739-0.887,1.093-1.393c0.638-1.064,1.128-2.303,1.334-3.481         c0.459-2.371-0.086-4.264-0.22-4.329c0.01-3.05-0.563-4.266-0.4-4.51c0.068-0.235,0.628,0.519,1.036,1.668         c0.987,2.273,0.7,6.054,0.918,3.958c0,0,0.009-0.355,0.022-0.887c-0.038-0.53-0.041-1.242-0.176-1.939         c-0.189-1.408-0.705-2.737-0.704-2.737c0,0,0.065,0.313,0.131,0.627c0.041,0.317,0.082,0.633,0.082,0.633         c-0.851-2.121-1.717-3.056-2.778-4.271c-0.283-0.293-0.558-0.624-0.915-0.94c-0.172-0.164-0.354-0.335-0.545-0.517         c-0.195-0.188-0.326-0.286-0.505-0.45c-0.678-0.603-1.487-1.378-2.517-2.431c-2.445-2.821-0.771-1.931-1.771-3.004         c0.073-0.061-0.246-0.442-1.563-1.617l-6.035-6.195l1.702,3.188c-3.077-2.344-5.712-5.788-3.731-2.125         c-0.355-0.68-0.972-1.554-1.781-2.568c-0.405-0.507-0.858-1.049-1.352-1.62c-0.249-0.284-0.506-0.576-0.77-0.876         c-0.12-0.136-0.243-0.274-0.367-0.415l-0.043-0.086c-0.237-0.459-0.619-0.901-1.021-1.308         c-0.804-0.813-1.69-1.486-1.677-1.874c-1.1-0.016-1.641-0.576-2.258-1.324c0.015,0.325-0.719,1.262-1.205,0.571         c1.938-1.509-0.33-1.826,0.435-3.542c-0.397,1.248-1.876-1.47-2.377,0.366c-0.352-0.63,0.615-0.675,0.648-1.454         c-1.837-0.5-2.142-3.01-3.813-4.229c-0.248,0.204-0.353,0.792-0.999,0.819l0.368-1.894c-0.396-0.175-1.568,1.043-1.305-0.263         c-0.117,0.264-0.294,0.661-0.558,0.542c-1.728-3.933-6.688-4.879-7.489-9.826c-0.05,0.828-0.353,0.612-0.666,0.332         c0.088,0.298-0.563,0.554-0.832,0.899l-0.352-2.055c-1.071,0.632-1.349-1.232-2.288-0.544l0.528,0.234         c-1.468,0.454-1.426,2.845-2.733,4.003c1.66-0.525-0.121,3.114,2.374,2.481c-0.046,0.457-0.573,0.222-0.749,0.618         c0.765-0.292,1.16-0.118,1.451,0.647l-0.19,0.071c1.612,1.354,1.728,2.512,3.048,4.525l0.486-0.733         c0.276,0.439,0.161,0.707,0.176,1.027c1.335-0.514-0.954-1.058,0.439-1.703c-0.765,1.716,2.507,2.545,1.419,4.275         c0.544,0.558,0.545-0.868,1.087-0.309l-0.235,0.528l0.631-0.353c0.28,0.442-0.015,1.102-0.323,1.438         c-0.05-0.126-0.34-0.158-0.462-0.225c0.02,0.917,1.475,1.167,1.489,1.475l-0.295-0.765c1.861,1.147,3.196,3.484,5.425,4.161         l0.178-0.398c1.642,0.578,0.572,1.205,2.036,2.177l-0.112,0.024c0.53-0.043,1.001,0.138,1.302,0.504         c-0.645,0.029-0.076,1.233-0.853,1.203c1.774,0.631,1.044,0.146,2.907-0.129l-0.293,0.66c0.701-0.16,0.952-0.366,1.684,0.119         c-0.908-0.089-0.338,1.116-1.438,1.098c0.116,1.16,0.854,1.371,1.444,1.555c0.295,0.092,0.554,0.178,0.68,0.372         c0.063,0.098,0.093,0.222,0.078,0.388c-0.004,0.042-0.011,0.086-0.021,0.133l-0.017,0.073l0.139,0.237         c0.184,0.321,0.352,0.652,0.506,0.996c1.327,0.667,1.567,0.485,1.22-0.133c-0.174-0.309-0.495-0.727-0.9-1.202         c-0.103-0.118-0.209-0.24-0.318-0.366l-0.083-0.094l-0.009-0.019l-0.018-0.036c-0.025-0.048-0.055-0.095-0.087-0.14         c-0.254-0.362-0.671-0.626-0.365-0.604c0.078-0.353,0.445-0.479,0.827-0.45c0.19,0.015,0.385,0.068,0.549,0.151         c0.041,0.021,0.079,0.043,0.116,0.067c0.194,0.187,0.388,0.372,0.575,0.552c0.401,0.395,0.774,0.779,1.099,1.137         c2.745,2.804,3.029,6.407,10.033,13.36c-0.688-0.701-0.835-0.648-1.522-1.346c1.138,1.474,2.531,2.639,3.973,3.905         c0.721,0.633,1.453,1.291,2.172,2.024l0.269,0.279c0.086,0.093,0.113,0.141,0.173,0.214c0.101,0.138,0.217,0.265,0.303,0.417         c0.172,0.302,0.319,0.624,0.399,0.979c0.89,0.42,1.213,1.452,1.309,2.28c0.105,0.846,0.084,1.521,0.747,1.907         c0,0,0.062-0.428,0.043-1.071c-0.03-0.641-0.15-1.491-0.436-2.284c-0.271-0.799-0.729-1.503-1.099-1.993         c-0.373-0.494-0.688-0.764-0.688-0.764c1.373,1.2,2.711,2.845,2.997,5.314c0.124,1.207-0.027,2.608-0.743,3.928         c-0.324,0.68-0.841,1.278-1.429,1.871c-0.694,0.65-1.446,1.313-2.266,1.988c0.13-0.336,0.572-1.016,1.115-1.784         c0.614-0.833,1.028-1.474,1.308-2.086c-0.188,0.155-0.341,0.327-0.503,0.488c-0.172,0.153-0.329,0.314-0.478,0.483         c-0.415,0.418-0.821,0.871-1.22,1.319c-0.801,0.898-1.61,1.804-2.671,2.556c-0.126-0.384,0.283-1.077,1.018-1.972         c0.366-0.448,0.814-0.946,1.317-1.481c0.253-0.266,0.518-0.543,0.791-0.831c0.16-0.159,0.233-0.255,0.319-0.356l0.272-0.307         c0.666-0.87,1.21-1.985,1.297-3.139c0.12-1.144-0.162-2.255-0.699-2.951c0.005,0.816,0.398,2.315,0.187,3.525         c-0.083,0.591-0.271,1.057-0.433,1.234c-0.199,0.165-0.302,0.05-0.505-0.475c0.21,0.701,0.037,1.451-0.44,2.056         c-0.73,0.875-1.722,1.792-2.732,2.719c-2.044,1.873-4.37,3.944-6.197,6.843l-0.299-0.923         c-0.651,0.844-1.913,2.682-3.305,4.043l1.7-3.284c-3.15,4.501-7.967,6.786-11.27,10.823c7.665-7.703,2.46-0.989,6.155-3.792         c-8.66,10.295-7.048,3.853-17.366,14.756c1.351-1.522,5.76-5.026,3.797-2.497c-2.146,1.894-5.048,4.327-6.608,5.247         c-6.903,7.157,1.708-0.452-0.909,2.916c-3.139,1.65-3.149,3.755-5.993,7.076l-0.643-0.6         c-8.409,7.613-0.831,3.418-8.524,10.149l2.188-3.909l-3.538,3.982l0.07-1.482c-3.567,4.614-4.978,5.753-9.183,9.563         c1.369-0.495,0.603,1.65-2.926,5.218c-2.789,2.051,0.765-1.945-4.176,3.173c0.746-1.523,1.503-3.255,4.264-4.872         c0.021-0.427,0.73-1.51,0.761-1.94c-3.029,2.182-6.646,6.453-8.461,8.279c0.724-0.678,1.596-1.482,2.113-1.823l-6.431,8.151         c-1.381,0.914-0.657-0.184,0.062-1.269c-1.41,1.544-2.146,2.851-4.266,5.076c0.059-1.067-0.598-1.453,2.239-4.765         l-6.388,7.507c-0.683,0.244-4.168,2.963-3.452,1.875c-4.148,3.555-8.468,10.427-13.966,15.142         c-0.168,0.363-0.606,0.989-1.62,2.147c-4.912,4.685-9.783,8.316-14.779,14.696l-4.132,2.323         c-4.25,4.659,5.508-3.229-1.568,4.528c-4.963,5.541-2.731,1.188-4.826,2.779c-2.155,3.068-5.768,8.536-11.328,12.624         C265.9,323.321,267.286,322.202,268.711,320.644z M214.172,375.985c0.934-1.194,2.655-3.72,3.799-4.132         C217.471,373.777,216.192,374.375,214.172,375.985z M131.747,306.744c0.996,0.586,2.12,1.911,3.265,3.527         C133.958,309.32,132.847,308.162,131.747,306.744z M298.041,175.404c-0.035,0.055-0.06,0.094-0.083,0.144         C295.342,177.681,296.278,176.934,298.041,175.404z M303.242,170.743c0.409-0.583,0.289-0.635-0.008-0.512         c-0.187,0.501-1.283,1.619-2.589,2.836C301.159,172.879,301.908,172.355,303.242,170.743z M405.261,164.825l0.798,1.122         C403.713,163.958,404.481,164.404,405.261,164.825z" style="fill:#ffffff;"/><path d="M142.065,315.363c0.197,0.406,0.164,0.605,0.118,0.793         C142.707,316.471,142.836,316.359,142.065,315.363z" style="fill:#ffffff;"/><path d="M302.553,286.148l0.175-0.159c0.055-0.129,0.065-0.216,0.057-0.28L302.553,286.148z" style="fill:#ffffff;"/><path d="M232.121,252.39c-1.105,0.926-1.785,1.379-2.279,1.637         C229.939,254.235,230.528,253.901,232.121,252.39z" style="fill:#ffffff;"/><path d="M328.318,143.557l-2.998,3.321c1.498-1.559,2.179-1.969,3.049-2.642         C328.153,144.162,327.341,144.555,328.318,143.557z" style="fill:#ffffff;"/><path d="M344.43,135.13c-0.009-0.144,0.135-0.152,0.125-0.296l-0.307-0.27         C343.978,134.872,344.008,135.307,344.43,135.13z" style="fill:#ffffff;"/><path d="M333.305,142.696c0.773,0.273,2.577-1.886,4.692-4.195c-0.13,0.134-0.252,0.265-0.391,0.391         C337.527,137.509,335.411,140.108,333.305,142.696z" style="fill:#ffffff;"/><path d="M338.492,137.97c0.333-0.35,0.67-0.703,1.004-1.054l0.512-0.512l0.245-0.236l0.044-0.029         c-0.063-0.083-0.106-0.12-0.138-0.126c-0.016-0.003-0.027,0.002-0.037,0.013c-0.056,0.063-0.122,0.138-0.197,0.223         C339.563,136.672,339.063,137.324,338.492,137.97z" style="fill:#ffffff;"/><path d="M309.15,164.142c1.184-0.915-0.01-1.326,0.798-1.708         C310.454,160.599,303.756,170.235,309.15,164.142z" style="fill:#ffffff;"/><polygon points="336.817,142.625 335.379,142.774 334.659,144.534        " style="fill:#ffffff;"/><path d="M318.874,159.622l3.714-3.357c-0.162-0.055,0.224-0.567,0.727-1.167         C321.115,157.255,318.6,159.515,318.874,159.622z" style="fill:#ffffff;"/><path d="M323.314,155.098c1.148-1.122,2.214-2.216,2.738-2.952         C325.446,152.767,324.146,154.109,323.314,155.098z" style="fill:#ffffff;"/><polygon points="332.178,147.652 330.998,148.563 328.454,151.012        " style="fill:#ffffff;"/><path d="M280.744,197.502l-3.674,4.043c-0.172,0.614,1.015-0.302,2.363-1.827         C280.203,198.641,281.55,197.123,280.744,197.502z" style="fill:#ffffff;"/><path d="M294.179,187.599c-1.177,0.909-1.392,0.836-2.191,1.211l0.682,0.917L294.179,187.599z" style="fill:#ffffff;"/><path d="M283.113,199.038c-0.163,0.606-4.964,6.236-0.123,1.296         C283.161,199.722,286.842,195.673,283.113,199.038z" style="fill:#ffffff;"/><polygon points="223.963,256.164 224.934,255.172 223.482,254.002        " style="fill:#ffffff;"/><path d="M165.859,234.101c4.258,4.886,1.895,0.277,5.634,4.801c1.383,0.763-3.057-3.697-1.689-2.864         C166.718,233.604,165.454,231.971,165.859,234.101z" style="fill:#ffffff;"/><path d="M169.804,236.038c0.494,0.391,1.025,0.796,1.608,1.209         C170.531,236.529,170.092,236.216,169.804,236.038z" style="fill:#ffffff;"/><polygon points="368.866,127.107 368.707,126.402 368.546,127.122        " style="fill:#ffffff;"/><path d="M367.064,127.25l0.733-0.938l-1.016,0.497C366.917,126.87,367.179,126.987,367.064,127.25z" style="fill:#ffffff;"/><path d="M208.159,376.07l-0.193,0.252c0.165,0.34,0.579,0.514,1.433,0.518         c0-0.001-0.369-0.144-0.681-0.331c-0.154-0.109-0.298-0.209-0.399-0.288C208.223,376.131,208.159,376.07,208.159,376.07z" style="fill:#ffffff;"/><polygon points="244.822,343.22 244.119,343.889 246.157,343.361        " style="fill:#ffffff;"/><path d="M277.325,308.789c-1.396,1.334-2.833,3.108-4.237,4.448         C275.929,310.123,278.638,309.361,277.325,308.789z" style="fill:#ffffff;"/></g></g></g></g></g></g></g><g id="Layer_1"/></svg>